<svg xmlns="http://www.w3.org/2000/svg" width="119" height="116" viewBox="0 0 119 116">
    <g fill="none" fill-rule="evenodd">
        <g fill="#FFF">
            <g transform="translate(-1285 -186) translate(1285 186)">
                <circle cx="3.5" cy="3.5" r="3.5"/>
                <circle cx="3.5" cy="21.5" r="3.5"/>
                <circle cx="25.5" cy="3.5" r="3.5"/>
                <circle cx="25.5" cy="21.5" r="3.5"/>
                <circle cx="47.5" cy="3.5" r="3.5"/>
                <circle cx="47.5" cy="21.5" r="3.5"/>
                <circle cx="70.5" cy="3.5" r="3.5"/>
                <circle cx="70.5" cy="21.5" r="3.5"/>
                <circle cx="92.5" cy="3.5" r="3.5"/>
                <circle cx="92.5" cy="21.5" r="3.5"/>
                <circle cx="115.5" cy="3.5" r="3.5"/>
                <circle cx="115.5" cy="21.5" r="3.5"/>
                <circle cx="3.5" cy="39.5" r="3.5"/>
                <circle cx="25.5" cy="39.5" r="3.5"/>
                <circle cx="47.5" cy="39.5" r="3.5"/>
                <circle cx="70.5" cy="39.5" r="3.5"/>
                <circle cx="92.5" cy="39.5" r="3.5"/>
                <circle cx="115.5" cy="39.5" r="3.5"/>
                <circle cx="3.5" cy="58.5" r="3.5"/>
                <circle cx="25.5" cy="58.5" r="3.5"/>
                <circle cx="47.5" cy="58.5" r="3.5"/>
                <circle cx="70.5" cy="58.5" r="3.5"/>
                <circle cx="92.5" cy="58.5" r="3.5"/>
                <circle cx="115.5" cy="58.5" r="3.5"/>
                <circle cx="3.5" cy="76.5" r="3.5"/>
                <circle cx="25.5" cy="76.5" r="3.5"/>
                <circle cx="47.5" cy="76.5" r="3.5"/>
                <circle cx="70.5" cy="76.5" r="3.5"/>
                <circle cx="92.5" cy="76.5" r="3.5"/>
                <circle cx="115.5" cy="76.5" r="3.5"/>
                <circle cx="3.5" cy="94.5" r="3.5"/>
                <circle cx="25.5" cy="94.5" r="3.5"/>
                <circle cx="47.5" cy="94.5" r="3.5"/>
                <circle cx="70.5" cy="94.5" r="3.5"/>
                <circle cx="92.5" cy="94.5" r="3.5"/>
                <circle cx="115.5" cy="94.5" r="3.5"/>
                <circle cx="3.5" cy="112.5" r="3.5"/>
                <circle cx="25.5" cy="112.5" r="3.5"/>
                <circle cx="47.5" cy="112.5" r="3.5"/>
                <circle cx="70.5" cy="112.5" r="3.5"/>
                <circle cx="92.5" cy="112.5" r="3.5"/>
                <circle cx="115.5" cy="112.5" r="3.5"/>
            </g>
        </g>
    </g>
</svg>
