<svg xmlns="http://www.w3.org/2000/svg" width="137" height="29" viewBox="0 0 137 29">
    <g fill="none" fill-rule="evenodd">
        <g fill-rule="nonzero">
            <g transform="translate(-17 -16) translate(17 16)">
                <path fill="#231F20" d="M41.736 20.854L41.736 9.339 36.365 9.339 36.365 6.902 49.58 6.902 49.58 9.339 44.208 9.339 44.208 20.854zM57.344 20.854c-.94.009-1.871-.178-2.733-.547-1.672-.716-2.977-2.07-3.618-3.752-.35-.9-.524-1.857-.515-2.821-.013-.958.162-1.91.515-2.802.322-.811.812-1.546 1.44-2.159.625-.6 1.367-1.07 2.18-1.381.872-.333 1.8-.5 2.734-.49h3.445c.96-.01 1.913.16 2.81.5 1.66.627 2.973 1.921 3.61 3.56.345.884.517 1.825.505 2.773.009.964-.166 1.92-.515 2.82-.324.84-.813 1.606-1.44 2.256-.621.636-1.364 1.145-2.186 1.496-.879.371-1.826.558-2.782.547h-3.45zm3.445-2.437c.615.006 1.224-.111 1.79-.346 1.082-.446 1.928-1.314 2.336-2.398.224-.583.336-1.201.33-1.824.006-.619-.106-1.233-.33-1.81-.409-1.075-1.255-1.932-2.334-2.363-.568-.229-1.177-.343-1.79-.337h-3.447c-.604-.006-1.202.109-1.76.337-.524.213-.997.53-1.392.93-.398.409-.709.891-.914 1.42-.227.582-.34 1.2-.331 1.823-.006.623.106 1.241.33 1.824.205.538.515 1.03.915 1.449.394.406.867.73 1.392.95.556.234 1.155.352 1.76.345h3.445zM82.371 6.902h2.414v7.792c0 1.074-.143 2.011-.429 2.811-.263.767-.725 1.452-1.342 1.986-.61.525-1.398.915-2.365 1.171-.966.256-2.135.384-3.508.384-1.363 0-2.527-.128-3.493-.384-.966-.256-1.754-.646-2.365-1.17-.616-.535-1.08-1.22-1.343-1.987-.286-.8-.428-1.737-.428-2.811V6.902h2.55v7.792c-.014.611.075 1.22.262 1.804.162.48.46.906.856 1.227.396.32.925.555 1.587.701.661.147 1.478.22 2.452.22.973 0 1.79-.073 2.452-.22.661-.146 1.19-.38 1.586-.7.395-.323.69-.748.852-1.228.175-.5.263-1.101.262-1.804V6.902zM93.484 20.854c-.94.009-1.872-.178-2.734-.547-1.671-.716-2.976-2.07-3.617-3.752-.35-.9-.525-1.857-.516-2.821-.012-.958.163-1.91.516-2.802.321-.811.812-1.546 1.44-2.159.625-.6 1.366-1.07 2.18-1.381.871-.333 1.799-.5 2.734-.49h7.667V9.34h-7.667c-.604-.006-1.203.109-1.761.337-.524.213-.997.53-1.392.93-.398.409-.708.891-.914 1.42-.227.582-.34 1.2-.331 1.823-.006.623.106 1.241.33 1.824.204.538.514 1.03.912 1.449.394.406.868.73 1.392.95.556.234 1.156.352 1.76.345h7.669v2.438l-7.668-.001zM117.907 20.854l-2.12-3.512h-6.692l1.167-1.977h4.341l-3.153-5.22-6.42 10.709h-2.822l8.14-13.357c.126-.224.298-.42.506-.576.204-.143.45-.217.7-.21.247-.008.49.066.69.21.203.158.372.353.497.576l8.154 13.357h-2.988zM124.7 10.644v10.21h-2.351V8.19c0-.448.113-.803.34-1.066.231-.264.572-.409.925-.393.181 0 .36.04.525.115.197.097.375.227.526.384L134.649 17V6.787H137v12.78c0 .461-.114.818-.34 1.071-.222.253-.547.395-.886.384-.402 0-.779-.173-1.129-.519l-9.945-9.859zM9.578.907C3.82 3.019 0 8.438 0 14.497c0 6.058 3.82 11.477 9.578 13.589V.906z"/>
                <g transform="translate(3.417 2.38)">
                    <ellipse cx="7.02" cy="6.939" fill="#FFF" rx="5.965" ry="6.044" transform="rotate(-79.72 7.02 6.94)"/>
                    <path fill="#231F20" d="M5.603 0.371H7.444V13.689H5.603z"/>
                </g>
                <path fill="#231F20" d="M20.842 25.255c-.305 0-.552-.243-.552-.544 0-.301.247-.545.552-.545h4.81c.533-.585 1.017-1.21 1.447-1.873H19c-.305 0-.552-.244-.552-.545 0-.3.247-.545.552-.545h8.735c.321-.604.598-1.23.829-1.872H17.159c-.305 0-.553-.244-.553-.545 0-.301.248-.545.553-.545h11.748c.33-1.22.496-2.476.496-3.737H12.248v12.065c-.006 1.331 1.079 2.417 2.428 2.431h.026c3.64.004 7.152-1.328 9.85-3.737l-3.71-.008z"/>
                <path fill="#F7901E" d="M29.093 13.466c-1.302-1.588-3.397-1.856-4.335-1.894H12.541V.452c7.374-1.11 14.386 3.521 16.152 10.667l.063.255c.166.688.278 1.387.337 2.092z"/>
                <path fill="#231F20" d="M14.702.578C21.209.564 26.877 4.953 28.408 11.19l.048.192.005.017c.113.472.191.892.246 1.267-1.346-1.13-3.092-1.345-3.937-1.378H12.833V.702C13.452.62 14.075.579 14.7.578m0-.578c-.822 0-1.643.07-2.453.205V11.86h12.498c1.046.041 3.577.38 4.656 2.634 0 0 .116-1.19-.372-3.231l-.02-.084c-.01-.045-.02-.09-.031-.131C27.368 4.563 21.473.001 14.702 0H14.7z"/>
                <circle cx="7.395" cy="6.592" r="1" fill="#231F20"/>
                <path fill="#231F20" d="M29.052 13.555c-.157 0-.285-.122-.292-.276-.191-4.025-3.56-7.19-7.645-7.183h-8.468c-.162 0-.293-.13-.293-.289 0-.16.131-.289.293-.289h8.468c4.398-.005 8.022 3.401 8.23 7.734.007.159-.117.295-.279.303h-.014z"/>
            </g>
        </g>
    </g>
</svg>
