<svg xmlns="http://www.w3.org/2000/svg" width="94" height="95" viewBox="0 0 94 95">
    <g fill="none" fill-rule="evenodd">
        <g fill-rule="nonzero">
            <g>
                <g transform="translate(-200 -5485) translate(200 5408) translate(0 77.672)">
                    <circle cx="47" cy="47" r="47" fill="#FFF"/>
                    <path fill="#231F20" d="M33.02 9.446C17.78 15.112 6.922 29.787 6.922 47S17.781 78.886 33.02 84.554V9.446z"/>
                    <g transform="translate(12.06 9.39)">
                        <circle cx="23.303" cy="23.303" r="16.477" fill="#FFF" transform="rotate(-45 23.303 23.303)"/>
                        <path fill="#231F20" d="M19.44 5.152H24.458000000000002V41.954H19.44z"/>
                    </g>
                    <path fill="#231F20" d="M63.716 76.732c-.831 0-1.505-.674-1.505-1.505 0-.832.674-1.506 1.505-1.506h13.106c1.45-1.62 2.764-3.354 3.933-5.186H58.697c-.831 0-1.505-.674-1.505-1.505 0-.832.674-1.506 1.505-1.506h23.804c.875-1.673 1.63-3.406 2.26-5.185H53.678c-.832 0-1.506-.675-1.506-1.506s.674-1.506 1.506-1.506h32.014c.897-3.369 1.35-6.84 1.35-10.327H40.297v33.343c0 3.671 2.948 6.71 6.619 6.717h.068c9.922.014 19.493-3.668 26.848-10.328H63.716z"/>
                    <path fill="#F7901E" d="M86.199 44.155c-3.548-4.385-9.257-5.128-11.816-5.23H41.095V8.188c1.949-.297 3.917-.447 5.888-.45 18.15 0 33.827 12.308 38.125 29.93l.172.704c.453 1.901.76 3.835.919 5.783z"/>
                    <path fill="#231F20" d="M46.983 8.537c17.78 0 33.14 12.057 37.35 29.321l.131.53.012.049c.307 1.302.521 2.473.672 3.499-3.668-3.123-8.424-3.717-10.73-3.809H41.893V8.88c1.688-.227 3.388-.341 5.09-.343m0-1.598c-2.24.002-4.477.19-6.687.563v32.217h34.057c2.852.113 9.748 1.05 12.69 7.277 0 0 .314-3.29-1.014-8.929l-.055-.232c-.03-.122-.055-.237-.085-.361h-.006c-4.275-17.523-20.06-30.54-38.905-30.54l.005.005zM28.653 25.16c-.001.872-.71 1.58-1.583 1.578-.873 0-1.58-.71-1.58-1.582.001-.873.71-1.58 1.583-1.58.42 0 .822.167 1.118.464.297.297.463.7.462 1.12z"/>
                    <path fill="#231F20" d="M86.089 44.399c-.426 0-.777-.335-.798-.76-.52-11.124-9.699-19.869-20.834-19.85h-23.07c-.29.008-.564-.142-.712-.393-.149-.25-.149-.562 0-.813.148-.251.421-.401.713-.392h23.07c11.986-.017 21.866 9.398 22.426 21.372.02.44-.32.815-.76.836h-.035z"/>
                </g>
            </g>
        </g>
    </g>
</svg>
