<svg xmlns="http://www.w3.org/2000/svg" width="96" height="93" viewBox="0 0 96 93">
    <g fill="none" fill-rule="evenodd">
        <g fill="#FFB74D">
            <g transform="translate(-1288 -1136) translate(1288 1136)">
                <circle cx="3" cy="3" r="3"/>
                <circle cx="3" cy="17" r="3"/>
                <circle cx="21" cy="3" r="3"/>
                <circle cx="21" cy="17" r="3"/>
                <circle cx="39" cy="3" r="3"/>
                <circle cx="39" cy="17" r="3"/>
                <circle cx="57" cy="3" r="3"/>
                <circle cx="57" cy="17" r="3"/>
                <circle cx="75" cy="3" r="3"/>
                <circle cx="75" cy="17" r="3"/>
                <circle cx="93" cy="3" r="3"/>
                <circle cx="93" cy="17" r="3"/>
                <circle cx="3" cy="32" r="3"/>
                <circle cx="21" cy="32" r="3"/>
                <circle cx="39" cy="32" r="3"/>
                <circle cx="57" cy="32" r="3"/>
                <circle cx="75" cy="32" r="3"/>
                <circle cx="93" cy="32" r="3"/>
                <circle cx="3" cy="47" r="3"/>
                <circle cx="21" cy="47" r="3"/>
                <circle cx="39" cy="47" r="3"/>
                <circle cx="57" cy="47" r="3"/>
                <circle cx="75" cy="47" r="3"/>
                <circle cx="93" cy="47" r="3"/>
                <circle cx="3" cy="61" r="3"/>
                <circle cx="21" cy="61" r="3"/>
                <circle cx="39" cy="61" r="3"/>
                <circle cx="57" cy="61" r="3"/>
                <circle cx="75" cy="61" r="3"/>
                <circle cx="93" cy="61" r="3"/>
                <circle cx="3" cy="76" r="3"/>
                <circle cx="21" cy="76" r="3"/>
                <circle cx="39" cy="76" r="3"/>
                <circle cx="57" cy="76" r="3"/>
                <circle cx="75" cy="76" r="3"/>
                <circle cx="93" cy="76" r="3"/>
                <circle cx="3" cy="90" r="3"/>
                <circle cx="21" cy="90" r="3"/>
                <circle cx="39" cy="90" r="3"/>
                <circle cx="57" cy="90" r="3"/>
                <circle cx="75" cy="90" r="3"/>
                <circle cx="93" cy="90" r="3"/>
            </g>
        </g>
    </g>
</svg>
