<svg xmlns="http://www.w3.org/2000/svg" xmlns:xlink="http://www.w3.org/1999/xlink" width="134" height="26" viewBox="0 0 134 26">
    <defs>
        <path id="8sael741ta" d="M0 0H133.426V25.135H0z"/>
    </defs>
    <g fill="none" fill-rule="evenodd">
        <g>
            <g>
                <g transform="translate(-573 -1109) translate(201 1105) translate(372.411 4.19)">
                    <mask id="j5e0ttg7cb" fill="#fff">
                        <use xlink:href="#8sael741ta"/>
                    </mask>
                    <g fill="#73716F" mask="url(#j5e0ttg7cb)">
                        <path d="M52.65 19.662c-4.931 3.573-12.08 5.473-18.236 5.473-8.627 0-16.396-3.131-22.275-8.344-.461-.41-.05-.969.505-.652 6.343 3.624 14.187 5.807 22.288 5.807 5.465 0 11.473-1.114 17-3.416.835-.347 1.534.54.717 1.132z"/>
                        <path d="M54.702 17.36c-.631-.792-4.169-.375-5.759-.188-.481.057-.556-.356-.122-.655 2.822-1.947 7.448-1.385 7.985-.733.541.657-.143 5.21-2.787 7.383-.407.334-.794.156-.614-.285.596-1.46 1.928-4.727 1.297-5.521zM49.055 2.764V.873c.002-.288.222-.48.489-.479h8.633c.276 0 .498.196.498.477v1.622c-.003.272-.236.627-.65 1.19l-4.472 6.27c1.66-.037 3.416.207 4.924 1.04.34.187.432.465.458.738v2.018c0 .278-.31.6-.636.433-2.657-1.368-6.183-1.517-9.122.016-.3.157-.614-.16-.614-.439v-1.918c0-.307.006-.833.321-1.3l5.181-7.3h-4.51c-.277 0-.498-.193-.5-.477zM17.562 14.579h-2.627c-.25-.016-.45-.2-.47-.436L14.467.905c0-.264.227-.476.507-.476h2.446c.256.012.461.202.477.444V2.6h.05C18.584.929 19.786.149 21.404.149c1.642 0 2.673.78 3.408 2.452C25.45.929 26.896.149 28.44.149c1.104 0 2.305.446 3.04 1.45.834 1.114.664 2.73.664 4.15l-.003 8.354c0 .263-.226.476-.507.476h-2.623c-.264-.017-.471-.221-.471-.475l-.001-7.018c0-.557.049-1.95-.074-2.479-.196-.892-.784-1.143-1.544-1.143-.638 0-1.3.418-1.57 1.086-.27.67-.245 1.783-.245 2.536v7.017c0 .263-.227.476-.506.476h-2.624c-.264-.017-.472-.221-.472-.475l-.003-7.018c0-1.477.246-3.649-1.617-3.649-1.888 0-1.814 2.117-1.814 3.649l-.002 7.017c0 .263-.227.476-.506.476zM66.132 2.852c-1.937 0-2.06 2.59-2.06 4.205 0 1.616-.024 5.07 2.036 5.07 2.035 0 2.133-2.785 2.133-4.484 0-1.114-.05-2.452-.393-3.51-.294-.92-.883-1.281-1.716-1.281zM66.108.149c3.898 0 6.006 3.288 6.006 7.467 0 4.037-2.328 7.242-6.006 7.242-3.825 0-5.91-3.288-5.91-7.382 0-4.123 2.109-7.327 5.91-7.327zM77.17 14.579h-2.617c-.262-.017-.47-.221-.47-.475L74.077.86c.022-.243.24-.432.504-.432h2.437c.23.011.418.164.467.37v2.025h.049C78.271 1.012 79.3.149 81.115.149c1.176 0 2.329.418 3.064 1.56.687 1.059.687 2.841.687 4.123v8.33c-.03.235-.244.417-.504.417H81.73c-.243-.015-.439-.191-.467-.417V6.975c0-1.449.172-3.567-1.643-3.567-.637 0-1.226.418-1.52 1.059-.368.808-.417 1.616-.417 2.508v7.128c-.005.263-.232.476-.511.476zM44.82 14.546c-.173.153-.423.163-.62.06-.872-.712-1.029-1.04-1.506-1.719-1.441 1.442-2.462 1.875-4.33 1.875-2.211 0-3.932-1.34-3.932-4.02 0-2.094 1.156-3.518 2.802-4.215 1.425-.615 3.415-.726 4.939-.894v-.335c0-.615.049-1.34-.32-1.87-.32-.475-.933-.67-1.474-.67-1.002 0-1.892.503-2.111 1.548-.046.232-.219.463-.456.475l-2.547-.271c-.214-.048-.453-.218-.392-.54.578-2.99 3.298-3.922 5.77-3.948h.195c1.265.016 2.881.357 3.866 1.284 1.278 1.172 1.154 2.736 1.154 4.44v4.017c0 1.21.512 1.74.992 2.39.168.235.205.514-.009.686-.536.442-1.49 1.254-2.014 1.713l-.007-.006zm-2.647-6.288c0 1.005.024 1.842-.492 2.736-.418.725-1.081 1.172-1.818 1.172-1.007 0-1.597-.754-1.597-1.87 0-2.198 2.006-2.597 3.907-2.597v.559zM10.388 14.546c-.174.153-.425.163-.62.06-.873-.712-1.03-1.04-1.506-1.719-1.442 1.442-2.463 1.875-4.33 1.875-2.212 0-3.932-1.34-3.932-4.02 0-2.094 1.154-3.518 2.801-4.215 1.425-.615 3.415-.726 4.939-.894v-.335c0-.615.05-1.34-.32-1.87-.32-.475-.934-.67-1.473-.67-1.003 0-1.894.503-2.112 1.548-.045.232-.218.463-.456.475L.833 4.51c-.215-.048-.454-.218-.392-.54C1.017.98 3.738.048 6.21.022h.194c1.266.016 2.882.357 3.866 1.284 1.278 1.172 1.154 2.736 1.154 4.44v4.017c0 1.21.512 1.74.992 2.39.167.235.206.514-.008.686-.537.442-1.49 1.254-2.015 1.713l-.006-.006zM7.74 8.258c0 1.005.025 1.842-.492 2.736-.417.725-1.08 1.172-1.818 1.172-1.007 0-1.597-.754-1.597-1.87 0-2.198 2.007-2.597 3.907-2.597v.559zM120.771 19.328v-.973c0-.277.139-.467.433-.45.548.076 1.325.153 1.876.041.72-.147 1.236-.648 1.541-1.334.43-.967.715-1.746.895-2.257l-5.464-13.293c-.093-.225-.12-.644.34-.644h1.91c.364 0 .512.227.593.45l3.962 10.797L130.639.868c.077-.221.232-.45.593-.45h1.801c.456 0 .43.418.34.644l-5.42 13.707c-.702 1.825-1.636 4.73-3.74 5.236-1.056.27-2.387.173-3.169-.149-.197-.097-.273-.357-.273-.528zM118.223 13.769c0 .247-.206.45-.46.45h-1.346c-.291 0-.49-.207-.527-.45l-.136-.9c-.619.514-1.378.966-2.202 1.28-1.585.605-3.41.705-4.959-.229-1.12-.674-1.713-1.993-1.713-3.354 0-1.052.33-2.096 1.062-2.854.978-1.035 2.394-1.544 4.105-1.544 1.033 0 2.512.12 3.587.465V4.82c0-1.842-.79-2.64-2.872-2.64-1.592 0-2.81.237-4.504.754-.272.009-.43-.194-.43-.441V1.461c0-.248.215-.488.448-.56 1.21-.519 2.925-.842 4.747-.901 2.376 0 5.2.526 5.2 4.114v9.655zm-2.589-2.645V8.39c-.904-.243-2.4-.344-2.979-.344-.914 0-1.916.212-2.439.765-.39.406-.568.988-.568 1.55 0 .728.257 1.457.855 1.818.696.464 1.774.407 2.788.125.974-.272 1.889-.752 2.343-1.18zM98.362 2.222c2.989 0 3.803 2.308 3.803 4.95.017 1.782-.317 3.37-1.256 4.28-.703.68-1.489.866-2.67.866-1.053 0-2.437-.54-3.471-1.29V3.473c1.076-.812 2.45-1.25 3.594-1.25zm-4.052 17.58h-1.805c-.252 0-.458-.203-.458-.45V.892c0-.248.206-.45.458-.45h1.381c.29 0 .49.206.527.45l.145.967C95.85.73 97.516.009 99.103.009c4.444 0 5.905 3.595 5.905 7.333 0 4-2.235 7.214-6.015 7.214-1.592 0-3.08-.576-4.225-1.578v6.374c0 .247-.207.45-.458.45z"/>
                    </g>
                </g>
            </g>
        </g>
    </g>
</svg>
