<svg xmlns="http://www.w3.org/2000/svg" width="132" height="31" viewBox="0 0 132 31">
    <g fill="none" fill-rule="evenodd">
        <g fill="#73716F" fill-rule="nonzero">
            <g>
                <g>
                    <path d="M18.225 0c1.858 3.163 3.733 6.317 5.57 9.493-2.97 5.193-5.899 10.412-8.97 15.548-1.179 1.971-2.325 3.962-3.49 5.94-3.778.022-7.557.021-11.335.016.115-.257.23-.514.369-.759C6.318 20.157 12.289 10.09 18.225 0zM100.827 7.54c2.086 3.91 4.17 7.817 6.254 11.727-.735.015-1.47-.023-2.204.002-.492-.861-.92-1.759-1.402-2.626-1.853-.055-3.707-.017-5.561-.021-.448.892-.935 1.762-1.409 2.638-.724-.007-1.449.015-2.172.008 2.135-3.926 4.275-7.85 6.494-11.727m-1.986 7.41c1.264.017 2.53.014 3.795.025-.633-1.185-1.204-2.403-1.883-3.562-.65 1.173-1.288 2.35-1.912 3.536zM107.956 7.54c3.253 2.782 6.506 5.566 9.718 8.394.089-2.552-.01-5.104.068-7.656.696.014 1.391.025 2.087.037-.022 3.93-.011 7.863-.015 11.793-2.137-1.749-4.19-3.596-6.3-5.377-1.174-.988-2.337-1.987-3.459-3.031-.027 2.584.013 5.17-.044 7.755-.691.003-1.383-.015-2.073-.01.006-3.968-.029-7.936.018-11.904zM40.793 19.243c2.171-3.9 4.286-7.832 6.507-11.702 2.068 3.908 4.148 7.811 6.24 11.706-.744.018-1.487.017-2.23.002-.452-.873-.915-1.74-1.346-2.623-1.856-.025-3.71-.004-5.566-.004-.484.88-.921 1.79-1.443 2.648-.722-.02-1.442-.005-2.162-.027m4.506-4.286c1.268-.005 2.538.012 3.807.008-.639-1.176-1.2-2.395-1.885-3.545-.646 1.177-1.283 2.356-1.922 3.537zM71.954 8.846c1.074-.503 2.331-.569 3.493-.346 1.006.202 1.815.883 2.429 1.637-.545.262-1.086.529-1.622.808-.722-1.075-2.44-1.417-3.489-.58-.555.38-.51 1.31.117 1.6 1.406.737 3.117.895 4.364 1.915 1.27 1.026 1.222 3.076.044 4.152-1.264 1.22-3.267 1.485-4.948 1.028-1.408-.338-2.466-1.57-2.654-2.924.68-.141 1.367-.258 2.055-.36.083.635.335 1.333.964 1.652.996.509 2.438.381 3.125-.536.485-.624.341-1.583-.32-2.04-1.382-.881-3.217-.936-4.457-2.046-.655-.53-.926-1.416-.703-2.202.177-.802.865-1.395 1.602-1.758zM54.887 8.448c.753-.1 1.514-.065 2.27-.057.81 1.212 1.618 2.425 2.429 3.637.853-1.197 1.682-2.411 2.523-3.616.776-.025 1.553-.039 2.33-.015-1.232 1.724-2.471 3.444-3.705 5.166 1.256 1.918 2.627 3.76 3.855 5.697-.74.004-1.48-.003-2.22-.01-.94-1.362-1.875-2.73-2.816-4.093-.973 1.368-1.954 2.73-2.915 4.105-.749.015-1.499.004-2.248.006 1.303-1.922 2.674-3.794 4.028-5.68-1.164-1.722-2.35-3.429-3.53-5.14zM66.314 8.393c.558-.02 1.114-.018 1.672-.004.003 3.627.001 7.254.001 10.88-.566.002-1.132 0-1.699 0 .021-3.625.011-7.25.026-10.876zM86.693 8.378c1.696.075 3.527-.237 5.09.607 1.525.83 1.876 3.288.471 4.401.885.355 1.741 1.023 1.974 2.007.373 1.207-.285 2.544-1.324 3.17-1.895 1.057-4.126.564-6.183.707-.064-3.63-.023-7.26-.028-10.892m1.968 1.565c.004 1.036.002 2.07-.005 3.106.738-.03 1.555.014 2.183-.448.642-.58.619-1.783-.09-2.3-.62-.398-1.384-.353-2.088-.358m.012 4.528c-.008 1.056-.004 2.113.016 3.17.99-.054 2.055.132 2.968-.366.809-.404.958-1.724.206-2.263-.906-.715-2.122-.518-3.19-.54zM121.55 8.388c.697-.006 1.394-.003 2.093-.002.003 1.431-.013 2.864.018 4.296 1.72-1.451 3.472-2.865 5.2-4.304.956.006 1.91.01 2.866.007-2.063 1.622-4.108 3.261-6.135 4.923 1.993 2.018 4.059 3.968 6.097 5.943-.946-.01-1.895.062-2.837-.042-1.622-1.588-3.233-3.185-4.84-4.786l-.35.446c-.04 1.464-.003 2.927-.03 4.391-.701-.004-1.403.014-2.103.01.005-3.627.015-7.255.02-10.882z" transform="translate(-1106 -1105) translate(201 1105) translate(905.108)"/>
                    <path d="M17.847 19.277c3.895-.001 7.79-.028 11.685.035 2.32 3.903 4.713 7.764 7.012 11.679-3.895.018-7.789.004-11.684.001-2.318-3.917-4.74-7.774-7.013-11.715z" transform="translate(-1106 -1105) translate(201 1105) translate(905.108)"/>
                </g>
            </g>
        </g>
    </g>
</svg>
