<svg xmlns="http://www.w3.org/2000/svg" width="88" height="29" viewBox="0 0 88 29">
    <g fill="none" fill-rule="evenodd">
        <g fill="#73716F" fill-rule="nonzero">
            <g>
                <g>
                    <path d="M68.04 6.15l.71-.56c2.468-2.064 5.628-1.837 7.74.613.213.245.32.262.533.052.142-.157.302-.28.444-.437 1.65-1.592 3.834-2.065 5.876-1.172 2.148.944 3.302 2.607 3.32 4.934.035 5.021.017 10.025.017 15.047 0 1.784-1.118 2.904-2.911 2.904-.71 0-1.42-.052-2.13.018-.728.07-.941-.158-.941-.91.035-4.9.017-9.798.017-14.697v-.613c-.017-1.137-.479-1.61-1.58-1.662-.994-.052-1.686.543-1.792 1.54-.018.227 0 .472 0 .7v12.685c0 1.854-1.083 2.94-2.965 2.922-.959-.018-2.255.42-2.805-.193-.48-.525-.16-1.767-.16-2.694V11.592c0-1.54-1.012-2.327-2.325-1.802-.817.332-1.083.98-1.083 1.82.018 4.058 0 8.1 0 12.16v.962c-.053 1.697-1.154 2.764-2.858 2.782-.71.017-1.42-.053-2.13.017-.764.07-.995-.14-.977-.945.035-6.876.018-13.752.018-20.646 0-.297.017-.577 0-.874-.036-.385.124-.508.515-.508 1.633.018 3.248.018 4.881 0 .409 0 .604.105.569.543-.036.314 0 .594.017 1.05zM29.737 15.5v7.31c-.019 3.173-1.71 4.813-4.947 4.83-1.418 0-2.855.019-4.273 0-2.873-.035-4.983-1.907-5.128-4.724-.11-2.014-.128-4.047-.018-6.062.145-2.888 2.4-4.92 5.382-4.956.782-.018 1.582 0 2.364 0 .764-.018 1.055-.446 1.037-1.159 0-.713-.327-1.034-1.055-.998-.818.018-1.636.018-2.455 0-2-.036-3.11-1.106-3.091-3.031 0-.784-.364-1.836.163-2.3.455-.392 1.492-.143 2.274-.143 2.036-.017 4.055 0 6.092 0 2.164 0 3.636 1.445 3.655 3.584.018 2.532 0 5.099 0 7.648zm-5.565 4.047v-.892c0-1.818 0-1.818-1.855-1.747-.927.036-1.436.5-1.455 1.444-.018.749-.018 1.48 0 2.229.019 1.283.6 1.622 2.492 1.675 1.4.036.69-.927.818-1.461.073-.393-.018-.838 0-1.248zM45.854 13.514c0 2.737.036 5.493-.018 8.23-.037 2.112-.546 4.026-2.619 5.153-.837.447-1.746.698-2.691.716-2.092.036-4.183 0-6.274.036-.51 0-.618-.18-.6-.627.036-.751-.018-1.485.018-2.236.036-1.431 1.146-2.523 2.6-2.576.946-.036 1.873-.018 2.82 0 .763 0 1.181-.305 1.181-1.11 0-.823-.4-1.11-1.164-1.127-1.273-.036-2.546.143-3.8-.215-2.164-.626-3.746-2.397-3.8-4.598-.11-3.489-.037-6.978-.055-10.467 0-.393.127-.519.527-.5 1.491.017 2.964.035 4.455 0 .655-.019.564.34.564.733v7.872c0 1.145.545 1.754 1.564 1.79 1.2.035 1.727-.448 1.727-1.647 0-2.648.018-5.313-.018-7.961 0-.627.164-.806.8-.788 1.328.054 2.673.072 4 0 .728-.035.837.233.82.86-.055 2.808-.037 5.635-.037 8.462zM.124 17.531V8.83c0-2.842 1.773-4.618 4.687-4.582 1.9.017 3.8-.213 5.683.142 2.407.462 3.927 2.29 3.945 4.724.019 2.575 0 5.15 0 7.726 0 3.232-1.936 5.204-5.23 5.292-.995.036-1.99.018-2.986 0-.453-.017-.652.125-.634.604.037.71.019 1.421 0 2.132-.036 1.527-1.14 2.628-2.678 2.646-.905.018-2.045.373-2.624-.142-.543-.48-.145-1.616-.163-2.469-.018-2.45 0-4.92 0-7.37zm5.465-4.35v1.686c0 2.007 0 2.007 2.046 1.83.886-.071 1.303-.498 1.32-1.368.019-.994-.035-2.007.019-3.001.108-2.878-.435-2.593-2.823-2.611-.435 0-.58.124-.58.55.037.96.018 1.936.018 2.913zM50.965 17.651c0-2.368-.019-4.754.018-7.123 0-.552-.127-.783-.742-.765-.815.035-1.9.267-2.353-.125-.56-.517-.126-1.62-.199-2.475v-.178c0-.837-.271-1.817.09-2.44.363-.623 1.466-.231 2.245-.427 1.538-.392 2.696-1.265 3.637-2.476C54.312.823 55.126.236 56.176.04c.56-.107.905-.036.869.676-.055.998 0 2.013-.019 3.028-.018.427.145.57.58.552.723-.018 1.447.018 2.17-.018.435-.018.58.142.562.57-.018 1.46-.018 2.902 0 4.362 0 .41-.109.624-.561.57-.09-.017-.181 0-.272 0-.796.072-1.9-.356-2.316.178-.398.499-.144 1.532-.144 2.333 0 4.844-.019 9.67.018 14.513 0 .677-.181.89-.869.837-.651-.054-1.32 0-1.99-.018-1.955-.071-3.24-1.371-3.24-3.294V17.65z" transform="translate(-1314 -1106) translate(201 1105) translate(1113.835 1.676)"/>
                </g>
            </g>
        </g>
    </g>
</svg>
