<svg xmlns="http://www.w3.org/2000/svg" width="72" height="23" viewBox="0 0 72 23">
    <g fill="none" fill-rule="evenodd">
        <g fill="#73716F" fill-rule="nonzero">
            <g>
                <g>
                    <path d="M30.397 21.784L24.646 21.784 28.243 0 33.994 0zM51.84.932C50.724.49 48.95 0 46.76 0c-5.596 0-9.536 2.982-9.56 7.245-.047 3.145 2.82 4.892 4.966 5.94 2.192 1.072 2.937 1.772 2.937 2.727-.022 1.467-1.771 2.143-3.403 2.143-2.262 0-3.474-.348-5.316-1.165l-.746-.35-.793 4.916c1.329.605 3.777 1.142 6.32 1.166 5.945 0 9.815-2.936 9.861-7.479.023-2.493-1.492-4.403-4.756-5.964-1.982-1.002-3.196-1.677-3.196-2.702.024-.932 1.027-1.887 3.264-1.887 1.842-.047 3.195.396 4.22.838l.513.233.77-4.729zM58.935 14.067c.469-1.252 2.27-6.095 2.27-6.095-.024.046.467-1.275.748-2.086l.397 1.877s1.076 5.215 1.31 6.304h-4.725zM65.952 0h-4.397c-1.356 0-2.386.394-2.97 1.807L50.14 21.784h5.964l1.193-3.268h7.298c.164.765.679 3.268.679 3.268h5.263L65.952 0zM20.23 0l-5.665 14.87-.62-3.016c-1.046-3.48-4.33-7.26-7.996-9.14l5.188 19.07h6.117L26.345 0H20.23z" transform="translate(-958 -1109) translate(201 1105) translate(757.57 4.19)"/>
                    <path d="M9.673 0H.098L0 .436c7.469 1.79 12.415 6.106 14.447 11.294l-2.081-9.916C12.023.436 10.97.045 9.673 0z" transform="translate(-958 -1109) translate(201 1105) translate(757.57 4.19)"/>
                </g>
            </g>
        </g>
    </g>
</svg>
