<svg id="Layer_1" data-name="Layer 1" xmlns="http://www.w3.org/2000/svg" viewBox="0 0 60 60"><defs><style>.cls-1{fill:#e65100;}.cls-2{fill:#ff9802;}</style></defs><path class="cls-1" d="M51.45,16.77a8.14,8.14,0,1,1,8.14-8.13A8.15,8.15,0,0,1,51.45,16.77ZM51.45,3a5.64,5.64,0,1,0,5.64,5.64A5.65,5.65,0,0,0,51.45,3Z"/><path class="cls-1" d="M23.6,15.63H21.1v-7a1.25,1.25,0,0,1,1.25-1.25H45.41v2.5H23.6Z"/><path class="cls-1" d="M52.08,41.35H35.84v-2.5h15V14.4h2.5V40.1A1.25,1.25,0,0,1,52.08,41.35Z"/><path class="cls-2" d="M39.36,51.44h-34a3.41,3.41,0,0,0-3.4,3.41v3.4H42.77v-3.4A3.41,3.41,0,0,0,39.36,51.44Z"/><polygon class="cls-2" points="17.81 46.91 17.81 49.17 26.89 49.17 26.89 46.91 25.75 46.91 25.75 33.3 26.89 33.3 26.89 31.02 17.81 31.02 17.81 33.3 18.95 33.3 18.95 46.91 17.81 46.91"/><polygon class="cls-2" points="6.47 46.91 6.47 49.17 15.54 49.17 15.54 46.91 14.41 46.91 14.41 33.3 15.54 33.3 15.54 31.02 6.47 31.02 6.47 33.3 7.6 33.3 7.6 46.91 6.47 46.91"/><polygon class="cls-2" points="37.1 44.55 37.09 44.55 37.09 36.4 37.1 36.4 37.1 33.3 38.23 33.3 38.23 31.02 29.16 31.02 29.16 33.3 30.29 33.3 30.29 46.91 29.16 46.91 29.16 49.17 38.23 49.17 38.23 46.91 37.1 46.91 37.1 44.55"/><path class="cls-2" d="M2.62,28.76H42.07A1,1,0,0,0,42.62,27L23.45,13.49a1.91,1.91,0,0,0-2.21,0L2.07,27A1,1,0,0,0,2.62,28.76Z"/><path class="cls-1" d="M53.68,6.81a.13.13,0,0,0-.11,0H52.7A1.81,1.81,0,0,0,52.37,6h1.19a.17.17,0,0,0,.16-.16V5.35a.17.17,0,0,0,0-.12.15.15,0,0,0-.11,0H49.33a.15.15,0,0,0-.11,0,.17.17,0,0,0,0,.12V6a.17.17,0,0,0,0,.12.16.16,0,0,0,.11.05h.74c.71,0,1.17.19,1.36.57h-2.1a.13.13,0,0,0-.11,0,.14.14,0,0,0,0,.11v.52a.17.17,0,0,0,0,.12.15.15,0,0,0,.11,0H51.5a1,1,0,0,1-.52.64,2.36,2.36,0,0,1-1.08.21h-.57a.16.16,0,0,0-.11.05.18.18,0,0,0,0,.12v.64a.14.14,0,0,0,0,.11c.65.69,1.49,1.66,2.52,2.9a.18.18,0,0,0,.13.06h1a.16.16,0,0,0,.15-.09.14.14,0,0,0,0-.17c-1-1.21-1.77-2.12-2.33-2.72a2.65,2.65,0,0,0,1.4-.56,1.84,1.84,0,0,0,.65-1.19h.86a.15.15,0,0,0,.11,0,.17.17,0,0,0,0-.12V6.92A.14.14,0,0,0,53.68,6.81Z"/></svg>