<svg id="Layer_1" data-name="Layer 1" xmlns="http://www.w3.org/2000/svg" viewBox="0 0 60 60"><defs><style>.cls-1{fill:#ff9802;}.cls-2{fill:#e65100;}</style></defs><path class="cls-1" d="M40.25,52.74a2.41,2.41,0,0,1-2.41,2.41H11.68a2.41,2.41,0,0,1-2.41-2.41V6.26a2.41,2.41,0,0,1,2.41-2.41h2.21a2.46,2.46,0,0,1,2.42,2.46,2.41,2.41,0,0,0,2.41,2.37H30.8a2.44,2.44,0,0,0,2.41-2.47,2.42,2.42,0,0,1,2.42-2.36h2.21a2.41,2.41,0,0,1,2.41,2.41v6.83h3.83V5a4,4,0,0,0-4-4H9.44a4,4,0,0,0-4,4V55a4,4,0,0,0,4,4H40.08a4,4,0,0,0,4-4V46.91H40.25Z"/><path class="cls-2" d="M41.24,44.41A14.58,14.58,0,1,1,55.81,29.83,14.6,14.6,0,0,1,41.24,44.41Zm0-26.66A12.08,12.08,0,1,0,53.31,29.83,12.09,12.09,0,0,0,41.24,17.75Z"/><path class="cls-2" d="M46.05,26.44a.32.32,0,0,0-.23-.09H44.08a3.54,3.54,0,0,0-.65-1.46H45.8a.31.31,0,0,0,.32-.32v-1a.31.31,0,0,0-.32-.32H37.35a.3.3,0,0,0-.23.09.29.29,0,0,0-.1.23v1.35a.34.34,0,0,0,.1.23.33.33,0,0,0,.23.1h1.47c1.43,0,2.34.38,2.72,1.14H37.35a.3.3,0,0,0-.23.09.3.3,0,0,0-.1.24v1a.3.3,0,0,0,.1.24.3.3,0,0,0,.23.09h4.33a2,2,0,0,1-1,1.27,4.56,4.56,0,0,1-2.15.43H37.35a.34.34,0,0,0-.33.33v1.29a.27.27,0,0,0,.1.22c1.29,1.38,3,3.31,5.05,5.8a.31.31,0,0,0,.26.12h2a.29.29,0,0,0,.3-.18.29.29,0,0,0,0-.35c-2-2.42-3.53-4.24-4.66-5.44a5.18,5.18,0,0,0,2.8-1.12A3.8,3.8,0,0,0,44.11,28h1.71a.32.32,0,0,0,.23-.09.32.32,0,0,0,.09-.24v-1A.32.32,0,0,0,46.05,26.44Z"/></svg>