<svg id="Layer_1" data-name="Layer 1" xmlns="http://www.w3.org/2000/svg" viewBox="0 0 60 60"><defs><style>.cls-1{fill:#e65100;}.cls-2{fill:#ff9802;}</style></defs><path class="cls-1" d="M31.39,50.55A21.15,21.15,0,1,1,52.54,29.4,21.18,21.18,0,0,1,31.39,50.55Zm0-39.79A18.65,18.65,0,1,0,50,29.4,18.67,18.67,0,0,0,31.39,10.76Z"/><path class="cls-1" d="M31.39,50.55c-6.72,0-12-9.29-12-21.15s5.26-21.14,12-21.14,12,9.28,12,21.14S38.11,50.55,31.39,50.55Zm0-39.79c-5.14,0-9.48,8.53-9.48,18.64s4.34,18.65,9.48,18.65,9.48-8.54,9.48-18.65S36.53,10.76,31.39,10.76Z"/><path class="cls-1" d="M51.29,30.65H11.49a1.25,1.25,0,0,1,0-2.5h39.8a1.25,1.25,0,0,1,0,2.5Z"/><path class="cls-1" d="M31.39,50.55a1.25,1.25,0,0,1-1.25-1.25V9.51a1.25,1.25,0,1,1,2.5,0V49.3A1.25,1.25,0,0,1,31.39,50.55Z"/><path class="cls-1" d="M48.18,41.18H14.6a1.25,1.25,0,0,1,0-2.5H48.18a1.25,1.25,0,0,1,0,2.5Z"/><path class="cls-1" d="M48.18,20.12H14.6a1.25,1.25,0,1,1,0-2.5H48.18a1.25,1.25,0,0,1,0,2.5Z"/><path class="cls-2" d="M4.89,47.89a1.38,1.38,0,0,0,0,2l9.66,9.76a1.39,1.39,0,0,0,1.95,0l2-2a1.38,1.38,0,0,0,0-2L8.79,45.94a1.38,1.38,0,0,0-1.95,0Z"/><path class="cls-2" d="M40.68,51.34l10.49-9.79a1.39,1.39,0,0,0,0-2l0,0a4.26,4.26,0,0,0-5.68.05l-6,5.36a4.05,4.05,0,0,1-2.86,1.14H28a1.38,1.38,0,1,1,0-2.76h8.29a2.76,2.76,0,1,0,0-5.52H30.65a8.67,8.67,0,0,0-11.95-.5l-7.52,7.1L20,53.33l1.62-1.61H39.73a1.41,1.41,0,0,0,1-.38Z"/><path class="cls-1" d="M8.08,41.19a1.26,1.26,0,0,1-1.14-.74A26.54,26.54,0,0,1,4.57,29.4,26.82,26.82,0,1,1,56.46,39a1.25,1.25,0,0,1-2.34-.89,24.32,24.32,0,1,0-47-8.68,24.1,24.1,0,0,0,2.15,10,1.25,1.25,0,0,1-.63,1.65A1.16,1.16,0,0,1,8.08,41.19Z"/></svg>