<svg id="Layer_1" data-name="Layer 1" xmlns="http://www.w3.org/2000/svg" viewBox="0 0 60 60"><defs><style>.cls-1{fill:#e65100;}.cls-2{fill:#ff9802;}</style></defs><path class="cls-1" d="M57.64,12.7H2.36a1.25,1.25,0,0,1,0-2.5H57.64a1.25,1.25,0,0,1,0,2.5Z"/><path class="cls-1" d="M29.89,12.59a1.24,1.24,0,0,1-1.25-1.25v-6a1.25,1.25,0,0,1,2.5,0v6A1.24,1.24,0,0,1,29.89,12.59Z"/><path class="cls-1" d="M52.62,44.55H7.45a3.32,3.32,0,0,1-3.31-3.31V12.09a1.25,1.25,0,0,1,2.5,0V41.24a.81.81,0,0,0,.81.81H52.62a.81.81,0,0,0,.81-.81V11.88a1.25,1.25,0,0,1,2.5,0V41.24A3.31,3.31,0,0,1,52.62,44.55Z"/><path class="cls-1" d="M29.89,51.75a1.25,1.25,0,0,1-1.25-1.25V43.67a1.25,1.25,0,0,1,2.5,0V50.5A1.25,1.25,0,0,1,29.89,51.75Z"/><circle class="cls-2" cx="29.89" cy="51.12" r="3.57"/><rect class="cls-2" x="37.63" y="22.12" width="8.01" height="14.88" rx="1"/><rect class="cls-2" x="14.25" y="27.59" width="8.01" height="9.42" rx="1"/><rect class="cls-2" x="25.89" y="17.5" width="8.01" height="19.5" rx="1"/></svg>