<svg id="Layer_1" data-name="Layer 1" xmlns="http://www.w3.org/2000/svg" viewBox="0 0 60 60"><defs><style>.cls-1{fill:#ff9802;}.cls-2{fill:#e65100;}</style></defs><path class="cls-1" d="M48.25,5.42a2.8,2.8,0,0,0-2.8-2.8H14.55a2.79,2.79,0,0,0-2.79,2.8v5.92H48.25ZM16.13,8.56A1.58,1.58,0,1,1,17.7,7,1.58,1.58,0,0,1,16.13,8.56Zm4.95,0A1.58,1.58,0,1,1,22.65,7,1.57,1.57,0,0,1,21.08,8.56Zm5,0A1.58,1.58,0,1,1,27.61,7,1.58,1.58,0,0,1,26,8.56Z"/><ellipse class="cls-1" cx="30" cy="28.88" rx="4.56" ry="4.57"/><path class="cls-1" d="M53.18,29.77a2.84,2.84,0,1,0,0-1.78H48.25V23.17h3.32a.89.89,0,0,0,.66-.3l2.5-2.78a2.75,2.75,0,0,0,1.14.25A2.84,2.84,0,1,0,53,17.5a2.76,2.76,0,0,0,.37,1.4l-2.24,2.49H48.25V13.12H11.76v8.27H8.83L6.59,18.91A2.68,2.68,0,0,0,7,17.5a2.84,2.84,0,1,0-2.84,2.84,2.92,2.92,0,0,0,1.15-.24l2.5,2.77a.89.89,0,0,0,.66.3h3.32V28H6.83a2.83,2.83,0,1,0,0,1.78h4.93v4.82H8.44a.88.88,0,0,0-.66.29L5.27,37.66a2.87,2.87,0,0,0-1.14-.24A2.83,2.83,0,1,0,7,40.25a2.67,2.67,0,0,0-.38-1.4l2.24-2.48h2.93v7.25a2.79,2.79,0,0,0,2.79,2.8h8v3.24L20,51.9a2.75,2.75,0,0,0-1.39-.37,2.84,2.84,0,1,0,2.59,1.7L24,50.72a.89.89,0,0,0,.3-.66V46.42h4.81v5.25a2.84,2.84,0,1,0,1.78,0V46.42h4.82v3.64a.89.89,0,0,0,.3.66l2.78,2.5a2.75,2.75,0,0,0-.25,1.14,2.84,2.84,0,1,0,2.84-2.83,2.76,2.76,0,0,0-1.4.37l-2.49-2.24V46.42h8a2.8,2.8,0,0,0,2.8-2.8V36.37h2.92l2.24,2.49A2.75,2.75,0,0,0,53,40.25a2.83,2.83,0,1,0,2.83-2.83,2.86,2.86,0,0,0-1.13.24l-2.51-2.78a.88.88,0,0,0-.66-.29H48.25V29.77ZM42,29.66l-3.59.51A8.27,8.27,0,0,1,37.92,32l2.84,2.23L40,35.55,36.62,34.2a8.05,8.05,0,0,1-1.31,1.3l1.36,3.37-1.36.78L33.08,36.8a9,9,0,0,1-1.78.48h0l-.51,3.59H29.23l-.52-3.59a8.91,8.91,0,0,1-1.79-.48l-2.23,2.85-1.35-.78,1.35-3.37a8.47,8.47,0,0,1-1.31-1.3L20,35.55l-.78-1.36L22.09,32a8.91,8.91,0,0,1-.48-1.79L18,29.66V28.1l3.58-.52a8.81,8.81,0,0,1,.48-1.78l-2.85-2.24L20,22.21l3.36,1.35a9.08,9.08,0,0,1,1.31-1.32l-1.35-3.35,1.35-.79L26.92,21a8.91,8.91,0,0,1,1.79-.48l.52-3.58h1.55l.51,3.58a8.91,8.91,0,0,1,1.79.48l2.23-2.85,1.36.79-1.36,3.35a8.18,8.18,0,0,1,1.31,1.32L40,22.21l.78,1.35-2.84,2.23a8.27,8.27,0,0,1,.47,1.79S42,28.1,42,28.1Z"/><path class="cls-2" d="M51.56,23.65H48.25v-2.5H51l2.42-2.67,1.86,1.67-2.79,3.09A1.27,1.27,0,0,1,51.56,23.65Z"/><path class="cls-2" d="M11.75,23.65H8.44a1.27,1.27,0,0,1-.93-.41L4.72,20.15l1.86-1.67L9,21.15h2.75Z"/><circle class="cls-1" cx="55.9" cy="17.39" r="2.95"/><circle class="cls-1" cx="4.1" cy="17.39" r="2.95"/><rect class="cls-2" x="48.25" y="27.63" width="5.5" height="2.5"/><circle class="cls-1" cx="55.9" cy="28.88" r="2.95"/><rect class="cls-2" x="6.25" y="27.63" width="5.5" height="2.5"/><circle class="cls-1" cx="4.1" cy="28.88" r="2.95"/><rect class="cls-2" x="28.75" y="46.39" width="2.5" height="5.58"/><circle class="cls-1" cx="30" cy="54.24" r="2.95"/><path class="cls-2" d="M39.41,54.31,35.73,50.9a1.24,1.24,0,0,1-.4-.92V46.39h2.5v3l3.28,3Z"/><path class="cls-2" d="M20.7,54.31,19,52.47l3.29-3v-3h2.5V50a1.28,1.28,0,0,1-.4.92Z"/><circle class="cls-1" cx="41.38" cy="54.43" r="2.95"/><circle class="cls-1" cx="18.68" cy="54.24" r="2.95"/><path class="cls-2" d="M53.46,39.32,50.8,36.76H48.25v-2.5h3a1.26,1.26,0,0,1,.87.35l3,2.91Z"/><path class="cls-2" d="M6.54,39.32l-1.73-1.8,3-2.91a1.26,1.26,0,0,1,.87-.35h3.05v2.5H9.2Z"/><circle class="cls-1" cx="55.85" cy="40.22" r="2.95"/><circle class="cls-1" cx="4.1" cy="40.15" r="2.95"/></svg>