<svg id="Layer_1" data-name="Layer 1" xmlns="http://www.w3.org/2000/svg" viewBox="0 0 60 60"><defs><style>.cls-1{fill:#ff9802;}.cls-2{fill:#e65100;stroke:#e65100;stroke-miterlimit:10;stroke-width:0.5px;}</style></defs><path class="cls-1" d="M1.63,43.78a1.7,1.7,0,0,0,0,2.4l11.84,12a1.69,1.69,0,0,0,2.39,0l2.4-2.4a1.69,1.69,0,0,0,0-2.39l-11.84-12a1.69,1.69,0,0,0-2.39,0Z"/><path class="cls-1" d="M45.48,48,58.33,36a1.69,1.69,0,0,0,0-2.42l0,0a5.23,5.23,0,0,0-7,.07l-7.29,6.56a5,5,0,0,1-3.5,1.41H30a1.69,1.69,0,1,1,0-3.38H40.15a3.39,3.39,0,0,0,0-6.77h-7a10.62,10.62,0,0,0-14.64-.61L9.34,39.53,20.15,50.46l2-2H44.32A1.67,1.67,0,0,0,45.48,48Z"/><path class="cls-2" d="M51.4,11.16H48a.09.09,0,0,1-.08-.09s0-.08,0-.11l2.42-2.42a1.56,1.56,0,0,0,0-2.21L48,4a1.56,1.56,0,0,0-2.21,0L43.39,6.42a.23.23,0,0,1-.11,0s-.06-.05-.06-.08V3a1.57,1.57,0,0,0-1.57-1.57H38.36A1.57,1.57,0,0,0,36.78,3V6.36a.09.09,0,0,1-.08.08s-.09,0-.12,0L34.19,4A1.56,1.56,0,0,0,32,4L29.65,6.36a1.56,1.56,0,0,0,0,2.21L32.07,11a.15.15,0,0,1,0,.11s-.06.06-.09.06H28.57A1.57,1.57,0,0,0,27,12.73V16a1.57,1.57,0,0,0,1.57,1.58H32s.09,0,.09.08,0,.09,0,.12l-2.42,2.42a1.56,1.56,0,0,0,0,2.21L32,24.76a1.56,1.56,0,0,0,2.21,0l2.42-2.42a.18.18,0,0,1,.12,0s0,.06,0,.09v3.38a1.57,1.57,0,0,0,1.58,1.57h3.29a1.57,1.57,0,0,0,1.57-1.57V22.37a.1.1,0,0,1,.09-.09s.08,0,.11,0l2.42,2.42a1.56,1.56,0,0,0,2.21,0l2.33-2.33a1.56,1.56,0,0,0,0-2.21l-2.42-2.42c0-.06,0-.09,0-.14s.05-.06.08-.06H51.4A1.57,1.57,0,0,0,53,16V12.7A1.6,1.6,0,0,0,51.4,11.16ZM51.54,16h0a.13.13,0,0,1-.12.12H48a1.58,1.58,0,0,0-1.45,1,1.51,1.51,0,0,0,.35,1.69l2.41,2.42a.12.12,0,0,1,0,.14L47,23.65a.12.12,0,0,1-.14,0l-2.42-2.41a1.58,1.58,0,0,0-2.68,1.1v3.44a.12.12,0,0,1-.11.11H38.36a.12.12,0,0,1-.12-.11V22.37a1.58,1.58,0,0,0-1-1.45,1.51,1.51,0,0,0-.61-.12,1.47,1.47,0,0,0-1.11.46l-2.42,2.42a.12.12,0,0,1-.14,0l-2.33-2.33a.12.12,0,0,1,0-.14l2.42-2.42A1.58,1.58,0,0,0,32,16.11H28.57a.12.12,0,0,1-.11-.12V12.7a.12.12,0,0,1,.11-.11H32a1.58,1.58,0,0,0,1.45-1,1.52,1.52,0,0,0-.34-1.69L30.7,7.52a.12.12,0,0,1,0-.14L33,5.05a.12.12,0,0,1,.14,0l2.42,2.41a1.58,1.58,0,0,0,2.68-1.1V3a.13.13,0,0,1,.11-.12h3.29a.13.13,0,0,1,.12.12V6.36a1.58,1.58,0,0,0,1,1.45,1.51,1.51,0,0,0,1.69-.35l2.42-2.41a.12.12,0,0,1,.14,0l2.33,2.33a.12.12,0,0,1,0,.14L46.92,9.94A1.57,1.57,0,0,0,48,12.62h3.41a.12.12,0,0,1,.11.11Z"/><path class="cls-2" d="M40,10.2a3.93,3.93,0,1,0,3.93,3.93A3.94,3.94,0,0,0,40,10.2Zm-2.48,3.93A2.48,2.48,0,1,1,40,16.61,2.47,2.47,0,0,1,37.51,14.13Z"/></svg>