<svg id="Layer_1" data-name="Layer 1" xmlns="http://www.w3.org/2000/svg" viewBox="0 0 60 60"><defs><style>.cls-1{fill:#e65100;}.cls-2{fill:#ff9802;}</style></defs><path class="cls-1" d="M9.27,55.17a1.28,1.28,0,0,1-.89-.36,1.27,1.27,0,0,1,0-1.77L18.87,42.56V28.9a1.25,1.25,0,0,1,2.5,0V43.07A1.26,1.26,0,0,1,21,44L10.15,54.81A1.24,1.24,0,0,1,9.27,55.17Z"/><path class="cls-1" d="M30,54.76a1.3,1.3,0,0,1-.6-.15L9.94,43.94a1.25,1.25,0,0,1-.65-1.1V28.9a1.25,1.25,0,0,1,2.5,0V42.1L30.6,52.42a1.24,1.24,0,0,1-.6,2.34Z"/><path class="cls-1" d="M52.29,49.05a1.22,1.22,0,0,1-.9-.39L42.7,39.58a1.24,1.24,0,0,1-.34-.86V26.86a1.25,1.25,0,0,1,2.5,0V38.22l8.33,8.71a1.26,1.26,0,0,1-.9,2.12Z"/><path class="cls-2" d="M50.34,12.47H48.61A8.81,8.81,0,0,0,34.68,6.28a14.72,14.72,0,0,0-26,6.23A8.84,8.84,0,0,0,7.71,30H24a1.36,1.36,0,0,0,1.36-1.36V25a.7.7,0,0,0-.7-.7H23.4a.7.7,0,0,1-.57-1.11l4.39-6a.7.7,0,0,1,1.13,0l4.39,6a.7.7,0,0,1-.56,1.11H31a.68.68,0,0,0-.37.12.7.7,0,0,0-.53.67V34a.7.7,0,0,1-.7.7H28.14a.7.7,0,0,0-.56,1.11l4.39,6a.7.7,0,0,0,1.13,0l4.39-6a.7.7,0,0,0-.56-1.11H35.71A.7.7,0,0,1,35,34V30.81a.82.82,0,0,1,.82-.81H52.26a8.84,8.84,0,0,0,7.17-9.57A9,9,0,0,0,50.34,12.47Z"/><circle class="cls-2" cx="9.27" cy="53.92" r="4.09"/><circle class="cls-2" cx="29.09" cy="52.9" r="3.06"/><circle class="cls-2" cx="52.29" cy="47.8" r="4.09"/><path class="cls-1" d="M43.61,57.21A1.25,1.25,0,0,1,42.36,56V38.72a1.25,1.25,0,0,1,2.5,0V56A1.25,1.25,0,0,1,43.61,57.21Z"/><circle class="cls-2" cx="43.61" cy="55.96" r="3.06"/></svg>