<svg id="Layer_1" data-name="Layer 1" xmlns="http://www.w3.org/2000/svg" viewBox="0 0 60 60"><defs><style>.cls-1{fill:#ff9802;}.cls-2{fill:#e65100;}</style></defs><path class="cls-1" d="M11.44,58.48c-2.35,0-4.71.06-7.06,0a2.68,2.68,0,0,1-1.77-.89A7.21,7.21,0,0,1,5.77,46.21a2.32,2.32,0,0,1,1.56,0,9.81,9.81,0,0,0,8.34,0,1.82,1.82,0,0,1,1-.18,6.62,6.62,0,0,1,5.2,6.34,7.92,7.92,0,0,1-1.5,5.18,2.66,2.66,0,0,1-1.76.89C16.23,58.54,13.83,58.48,11.44,58.48Z"/><path class="cls-1" d="M18.76,37.28a7.28,7.28,0,0,1-14.55,0,7.05,7.05,0,0,1,7-7.21A7.19,7.19,0,0,1,18.76,37.28Z"/><path class="cls-1" d="M48.61,58.48c-2.36,0-4.72.06-7.07,0a2.65,2.65,0,0,1-1.79-.86A7.2,7.2,0,0,1,43,46.17a2.16,2.16,0,0,1,1.46.06,9.77,9.77,0,0,0,8.35,0,1.71,1.71,0,0,1,1-.17A6.63,6.63,0,0,1,59,52.4a8.79,8.79,0,0,1-1.42,5.12,2.06,2.06,0,0,1-1.9,1C53.33,58.44,51,58.48,48.61,58.48Z"/><path class="cls-1" d="M55.88,37.28a7.28,7.28,0,0,1-14.55,0,7,7,0,0,1,7.34-7.2C52.86,30.12,55.68,32.91,55.88,37.28Z"/><path class="cls-1" d="M35.78,17.71a2.23,2.23,0,0,0-1.55,0,9.93,9.93,0,0,1-8.36,0,2.07,2.07,0,0,0-1.45-.05c-5.43,1.95-5.55,7.08-3.7,10.82A2.42,2.42,0,0,0,23.05,30v0H36.42a3.08,3.08,0,0,0,3.36-2.39,13.3,13.3,0,0,0,.52-2.33C40.79,21.57,39.32,19.06,35.78,17.71Z"/><path class="cls-1" d="M30,16a7.29,7.29,0,0,0,7.35-7.27A7.28,7.28,0,0,0,30.07,1.5,7.24,7.24,0,0,0,30,16Z"/><path class="cls-2" d="M23.84,48.23a1.25,1.25,0,0,1-1-.54A1.23,1.23,0,0,1,23.13,46l5.53-3.83V33.47a1.25,1.25,0,0,1,2.5,0v9.32a1.26,1.26,0,0,1-.54,1L24.55,48A1.26,1.26,0,0,1,23.84,48.23Z"/><path class="cls-2" d="M36,48.23a1.24,1.24,0,0,1-.71-.22L29.2,43.82a1.25,1.25,0,1,1,1.42-2.06L36.71,46A1.25,1.25,0,0,1,36,48.23Z"/></svg>