<?xml version="1.0" encoding="UTF-8"?>
<svg width="22px" height="24px" viewBox="0 0 22 24" version="1.1" xmlns="http://www.w3.org/2000/svg" xmlns:xlink="http://www.w3.org/1999/xlink">
    <title>741F8B7F-534C-4C4A-AB4C-5508EEC34D8E</title>
    <g id="FInal" stroke="none" stroke-width="1" fill="none" fill-rule="evenodd">
        <g id="Developer---Integration-API" transform="translate(-1221.000000, -1103.000000)" fill="#E85000" fill-rule="nonzero" stroke="#E65100" stroke-width="0.4">
            <g id="Group-23" transform="translate(1222.000000, 1104.000000)">
                <g id="copy" transform="translate(0.000000, 0.000000)">
                    <path d="M13.9791107,22 L2.52088929,22 C1.13027956,22 -2.44249065e-15,20.8697204 -2.44249065e-15,19.4791107 L-2.44249065e-15,7.10411071 C-2.44249065e-15,5.71350098 1.13027956,4.58338929 2.52088929,4.58338929 L2.97911071,4.58338929 C3.35861204,4.58338929 3.66661071,4.89138796 3.66661071,5.27088929 C3.66661071,5.65039063 3.35861204,5.95838929 2.97911071,5.95838929 L2.52088929,5.95838929 C1.88928223,5.95838929 1.375,6.47250364 1.375,7.10411071 L1.375,19.4791107 C1.375,20.1107178 1.88928223,20.625 2.52088929,20.625 L13.9791107,20.625 C14.6107178,20.625 15.125,20.1107178 15.125,19.4791107 L15.125,19.0208893 C15.125,18.641388 15.4329987,18.3333893 15.8125,18.3333893 C16.1920013,18.3333893 16.5,18.641388 16.5,19.0208893 L16.5,19.4791107 C16.5,20.8697204 15.3697204,22 13.9791107,22 Z" id="Path"></path>
                    <path d="M17.6458893,16.5 L8.02088929,16.5 C6.63027956,16.5 5.5,15.3697204 5.5,13.9791107 L5.5,2.52088929 C5.5,1.13027956 6.63027956,1.22124533e-15 8.02088929,1.22124533e-15 L17.6458893,1.22124533e-15 C19.036499,1.22124533e-15 20.1666107,1.13027956 20.1666107,2.52088929 L20.1666107,13.9791107 C20.1666107,15.3697204 19.036499,16.5 17.6458893,16.5 Z M8.02088929,1.375 C7.38928223,1.375 6.875,1.88928223 6.875,2.52088929 L6.875,13.9791107 C6.875,14.6107178 7.38928223,15.125 8.02088929,15.125 L17.6458893,15.125 C18.2774964,15.125 18.7916107,14.6107178 18.7916107,13.9791107 L18.7916107,2.52088929 C18.7916107,1.88928223 18.2774964,1.375 17.6458893,1.375 L8.02088929,1.375 Z" id="Shape"></path>
                </g>
            </g>
        </g>
    </g>
</svg>