<svg id="Layer_1" data-name="Layer 1" xmlns="http://www.w3.org/2000/svg" viewBox="0 0 60 60"><defs><style>.cls-1{fill:#ff9802;fill-rule:evenodd;}.cls-2{fill:#e65100;stroke:#e65100;stroke-miterlimit:10;stroke-width:0.5px;}</style></defs><path id="Path" class="cls-1" d="M25.37,1h-23A1.41,1.41,0,0,0,1,2.41V25.63A1.41,1.41,0,0,0,2.39,27h23a1.41,1.41,0,0,0,1.4-1.41V2.41A1.41,1.41,0,0,0,25.37,1Z"/><path id="Path-2" data-name="Path" class="cls-1" d="M25.37,33h-23A1.41,1.41,0,0,0,1,34.38V57.59A1.41,1.41,0,0,0,2.39,59h23a1.41,1.41,0,0,0,1.4-1.41V34.38A1.41,1.41,0,0,0,25.37,33Z"/><path id="Path-3" data-name="Path" class="cls-1" d="M56.28,33h-23a1.41,1.41,0,0,0-1.4,1.42V57.59A1.4,1.4,0,0,0,33.31,59h23a1.4,1.4,0,0,0,1.4-1.41V34.38A1.41,1.41,0,0,0,56.28,33Z"/><path class="cls-2" d="M55.86,10.5h-3.3s-.09,0-.09-.08,0-.09,0-.12L54.84,8a1.5,1.5,0,0,0,0-2.14L52.58,3.56a1.5,1.5,0,0,0-2.14,0L48.1,5.9a.18.18,0,0,1-.12,0s0-.06,0-.09V2.54A1.52,1.52,0,0,0,46.4,1H43.21a1.51,1.51,0,0,0-1.52,1.52v3.3s0,.09-.08.09-.09,0-.12,0L39.18,3.59a1.51,1.51,0,0,0-2.15,0L34.78,5.84a1.51,1.51,0,0,0,0,2.15l2.34,2.34a.17.17,0,0,1,0,.11s-.06.06-.09.06H33.73A1.51,1.51,0,0,0,32.21,12v3.19a1.52,1.52,0,0,0,1.52,1.53H37s.09,0,.09.08,0,.09,0,.12l-2.34,2.34a1.5,1.5,0,0,0,0,2.14L37,23.68a1.53,1.53,0,0,0,2.15,0l2.34-2.34a.18.18,0,0,1,.12,0s0,.06,0,.09v3.27a1.52,1.52,0,0,0,1.53,1.52h3.19a1.51,1.51,0,0,0,1.52-1.52v-3.3s0-.09.08-.09.09,0,.12,0l2.34,2.34a1.5,1.5,0,0,0,2.14,0l2.26-2.25a1.51,1.51,0,0,0,0-2.15L52.5,16.91c-.06-.06-.06-.09,0-.14s.06-.06.09-.06h3.3a1.51,1.51,0,0,0,1.52-1.52V12A1.55,1.55,0,0,0,55.86,10.5ZM56,15.19h-.06a.12.12,0,0,1-.11.11H52.56a1.57,1.57,0,0,0-1.42.93,1.5,1.5,0,0,0,.34,1.64l2.35,2.34a.17.17,0,0,1,0,.14l-2.26,2.26a.12.12,0,0,1-.14,0l-2.35-2.34a1.53,1.53,0,0,0-2.59,1.07v3.33a.12.12,0,0,1-.11.11H43.21a.12.12,0,0,1-.11-.11v-3.3A1.54,1.54,0,0,0,42.17,20a1.42,1.42,0,0,0-.59-.12,1.45,1.45,0,0,0-1.08.45l-2.34,2.35a.12.12,0,0,1-.14,0l-2.26-2.26a.12.12,0,0,1,0-.14l2.35-2.34A1.53,1.53,0,0,0,37,15.3h-3.3a.12.12,0,0,1-.11-.11V12a.12.12,0,0,1,.11-.12H37A1.53,1.53,0,0,0,38.44,11a1.46,1.46,0,0,0-.33-1.63L35.79,7a.12.12,0,0,1,0-.14l2.26-2.26a.17.17,0,0,1,.14,0l2.34,2.35a1.53,1.53,0,0,0,2.6-1.08V2.54a.13.13,0,0,1,.11-.11h3.19a.12.12,0,0,1,.11.11v3.3a1.54,1.54,0,0,0,.94,1.41,1.46,1.46,0,0,0,1.63-.33l2.35-2.35a.17.17,0,0,1,.14,0l2.25,2.26a.12.12,0,0,1,0,.14L51.51,9.32a1.53,1.53,0,0,0,1.07,2.59h3.31A.13.13,0,0,1,56,12Z"/><path class="cls-2" d="M44.79,9.57a3.81,3.81,0,1,0,3.81,3.81A3.82,3.82,0,0,0,44.79,9.57ZM42.4,13.38a2.4,2.4,0,1,1,2.39,2.4A2.39,2.39,0,0,1,42.4,13.38Z"/></svg>