<svg id="Layer_1" data-name="Layer 1" xmlns="http://www.w3.org/2000/svg" viewBox="0 0 60 60"><defs><style>.cls-1{fill:#ff9802;}.cls-2{fill:#e65100;}</style></defs><path d="M30.05,34.42A14.1,14.1,0,1,0,16,20.32,14.09,14.09,0,0,0,30.05,34.42Zm0-26a11.9,11.9,0,1,1-11.93,11.9A11.93,11.93,0,0,1,30.05,8.42Z"/><path class="cls-1" d="M45.78,40.28H38.85a14.29,14.29,0,0,1-9,3.18,13.91,13.91,0,0,1-8.73-3.18H14.22a7.09,7.09,0,0,0-7.08,7V58.44H52.86V47.32A7.09,7.09,0,0,0,45.78,40.28Z"/><path class="cls-1" d="M22.38,34.18V39A11.9,11.9,0,0,0,30,41.72,12.12,12.12,0,0,0,37.62,39V34.26a16,16,0,0,1-6.73,1.91v3.06a.89.89,0,0,1-1.78,0V36.17A15.5,15.5,0,0,1,22.38,34.18Z"/><path class="cls-2" d="M30,34.42a14.3,14.3,0,0,1-14.4-14.17,14.4,14.4,0,0,1,28.8,0A14.3,14.3,0,0,1,30,34.42ZM30,8.57a11.81,11.81,0,0,0-11.9,11.68,11.9,11.9,0,0,0,23.8,0A11.81,11.81,0,0,0,30,8.57Z"/><path class="cls-2" d="M30.1,29.48a9.21,9.21,0,1,1,9.21-9.2A9.22,9.22,0,0,1,30.1,29.48Zm0-15.91a6.71,6.71,0,1,0,6.71,6.71A6.72,6.72,0,0,0,30.1,13.57Z"/><path class="cls-2" d="M30,24.2a3.92,3.92,0,1,1,3.91-3.92A3.93,3.93,0,0,1,30,24.2Zm0-5.33a1.42,1.42,0,1,0,1.41,1.41A1.42,1.42,0,0,0,30,18.87Z"/><path class="cls-2" d="M52.25,21.57H47.5a1.25,1.25,0,0,1,0-2.5h4.75a1.25,1.25,0,0,1,0,2.5Z"/><path class="cls-2" d="M12.75,21.57H8a1.25,1.25,0,0,1,0-2.5h4.75a1.25,1.25,0,0,1,0,2.5Z"/><path class="cls-2" d="M30.1,5.19a1.25,1.25,0,0,1-1.25-1.25V1.56a1.25,1.25,0,1,1,2.5,0V3.94A1.25,1.25,0,0,1,30.1,5.19Z"/></svg>