<svg id="Layer_1" data-name="Layer 1" xmlns="http://www.w3.org/2000/svg" viewBox="0 0 60 60"><defs><style>.cls-1{fill:#e65100;}.cls-1,.cls-2{fill-rule:evenodd;}.cls-2{fill:#ff9802;}</style></defs><path class="cls-1" d="M49.36,29.88a1,1,0,0,0-1.3,0l-3.45,3.37a8.64,8.64,0,0,1-.93,6.31l-9.31-8.47A2,2,0,0,0,32,30.86a9.13,9.13,0,0,1-7.4,1.19l-4.75,4.78c-.79.79-4.08-1-1.89-3.2,2.73-2.73,9.23-8.16,10.57-9.28l6.63.11,3.22-3.23a1,1,0,0,0,0-1.38,1,1,0,0,0-1.31,0l-2.65,2.65-6.52-.1-1.31,1.08-4.2-4A1,1,0,0,0,21,20.87L25,24.75c-2.58,2.18-6.48,5.54-8.47,7.53-4,4,2,8.48,4.59,5.9l4.05-4.07a10.27,10.27,0,0,0,7-1.22,3.3,3.3,0,0,1,.86-.39c4.66,4.25,8.86,8.17,13.27,12.59,1.25,1.24-1.25,4.34-2.78,2.65,0,0-7.71-8.29-8.63-9.28l-1.4,1.3c3.75,4,7.52,8.29,11.42,12.19,1.24,1.24-1.06,3.43-2.61,1.74,0,0-10.28-11-11.2-12.09l-1.43,1.27s6.82,7.43,9,9.62l0,0h0v0h0l0,0h0c1,1.27-1.22,3.26-2.71,1.63-.1-.17-8.44-8.88-9.23-9.67l-1.35,1.34,6.37,6.38c.83.91-.82,3.9-2.6,1.74C27,51.39,16.6,40.82,14.78,39l-.1-6-3.37-3.52A1,1,0,0,0,10,29.47h0a1,1,0,0,0-.05,1.37l2.86,3,.1,6,1.51,1.53c-.69.59-1.73,1.53-2.72,2.52-1.66,1.66-.79,4.51,1.22,5.44-2.86,2.51,1.15,7.23,4.27,5.07l.44-.31c.52,2.16,3.18,3.63,4.93,2.17l3.55-2.88c.77.83,1.4,1.51,1.79,1.95a3.52,3.52,0,0,0,6-.73c2,2.26,4.81,3.9,6.82.15,3.74,4.11,8.58-1.14,5.61-4.11L45.68,50c2.39-.91,4.06-4.17,2-6.22-.89-.9-1.75-1.84-2.61-2.76a11.79,11.79,0,0,0,1.6-7.07l2.71-2.65A.94.94,0,0,0,49.36,29.88ZM13,45.2c1-1,2.05-1.94,2.72-2.51l2.15,2.19-3.21,2.6C13.25,48.23,12.18,46.06,13,45.2Zm3.06,7.59c-1,.69-2.94-.78-1.94-2l5.12-4.46,2.24,2.3C19.86,49.92,17.86,51.57,16.09,52.79Zm5.31,1.9c-1.37.73-2.45-1.25-1.77-2.17,1.21-1,2.47-2,3.21-2.57l1.93,2Z"/><path class="cls-2" d="M13.14,3.56,1.24,24.17,6.83,30,21.69,16.56l-6.8-13A1,1,0,0,0,13.14,3.56ZM9.76,24.19a2.24,2.24,0,1,1-.82-3.06A2.24,2.24,0,0,1,9.76,24.19Z"/><path class="cls-2" d="M46.86,4.26a1,1,0,0,0-1.75,0l-6.8,13L53.17,30.73l5.59-5.86ZM53.3,25.71a2.24,2.24,0,1,1,.82-3.06A2.24,2.24,0,0,1,53.3,25.71Z"/></svg>