<svg xmlns="http://www.w3.org/2000/svg" width="35" height="31" viewBox="0 0 35 31">
    <g fill="none" fill-rule="evenodd">
        <g>
            <g>
                <path fill="#FFA727" d="M6.5 1.244L28 1.244 28 14.244 17.5 22.244 7 14.244z" transform="translate(-810 -476) translate(810 476.756)"/>
                <g fill-rule="nonzero">
                    <path fill="#E7590C" d="M34.184 9.632l-4.973-3.514V.987C29.16.478 28.769.07 28.263 0H6.473c-.505.07-.897.478-.947.987v5.092L.356 9.632C.15 9.78.02 10.01 0 10.263v18.75c.067.515.472.92.987.987H33.75c.434 0 .592-.513.592-.987v-18.75c0-.237.04-.474-.158-.631zm-4.973-1.619l3.394 2.33-3.394 2.565V8.013zM7.105 1.58h20.527v12.553l-10.264 7.737-10.263-7.737V1.579zM5.526 7.974v4.973l-3.394-2.605 3.394-2.368zM1.58 11.96l11.053 8.368-11.053 7.46V11.962zm1.895 16.46l10.5-7.066 2.802 2.132c.159.123.353.192.553.197.158 0 .237-.079.395-.197l2.92-2.25 10.62 7.184H3.473zm29.29-.908L21.946 20.25l10.816-8.29v15.553z" transform="translate(-810 -476) translate(810 476.756)"/>
                    <path fill="#FBFBFB" d="M11.053 6.71h3.552c.436 0 .79-.353.79-.789 0-.436-.354-.79-.79-.79h-3.552c-.436 0-.79.354-.79.79 0 .436.354.79.79.79zM11.053 10.263h12.631c.436 0 .79-.353.79-.79 0-.435-.354-.789-.79-.789H11.053c-.436 0-.79.354-.79.79 0 .436.354.79.79.79zM24.474 13.026c0-.436-.354-.79-.79-.79H11.053c-.436 0-.79.354-.79.79 0 .436.354.79.79.79h12.631c.436 0 .79-.354.79-.79z" transform="translate(-810 -476) translate(810 476.756)"/>
                </g>
            </g>
        </g>
    </g>
</svg>
