<svg id="Layer_1" data-name="Layer 1" xmlns="http://www.w3.org/2000/svg" viewBox="0 0 60 60"><defs><style>.cls-1{fill:#ff9802;}.cls-2{fill:#e65100;}</style></defs><path class="cls-1" d="M28.86,1.37c0,2.56,0,5.12,0,7.67,0,.24,0,.33.3.32q.71,0,1.41,0a1.72,1.72,0,0,1,1.72,1.7,1.7,1.7,0,0,1-1.69,1.73c-.46,0-.91,0-1.37,0-.29,0-.38.07-.38.37,0,2,0,4.11,0,6.16,0,.28-.05.38-.36.37-1.32,0-2.64,0-3.95,0-.26,0-.34-.07-.4-.31a4,4,0,0,0-7.81,0c-.05.25-.14.29-.36.29H10.55v-.91c.1,0,.08-.12.09-.18.08-.54.15-1.08.26-1.61A19.19,19.19,0,0,1,17.45,5.92a19,19,0,0,1,9-4.26,9.82,9.82,0,0,0,1.62-.29Z"/><path class="cls-1" d="M31.74,1.37c.62.1,1.24.19,1.85.3A19.51,19.51,0,0,1,49.1,17c.16.78.24,1.57.33,2.37,0,.24,0,.31-.29.31-2.4,0-4.81,0-7.21,0-.41,0-.51.11-.48.49a10.84,10.84,0,0,1,0,1.14,1.72,1.72,0,1,1-3.44,0c0-.42,0-.84,0-1.25s-.06-.38-.37-.38H31.51c-.28,0-.38,0-.38-.36q0-2,0-4c0-.22.07-.29.28-.34a4,4,0,0,0,0-7.83c-.25,0-.25-.17-.25-.36,0-1.81,0-3.62,0-5.43Z"/><path class="cls-1" d="M28.86,35.89c0-.36,0-.73,0-1.09,0-.19,0-.27-.26-.32a4,4,0,0,1-.06-7.82.4.4,0,0,0,.32-.39c0-1.32,0-2.64,0-3.95,0-.31-.09-.37-.38-.37-2.05,0-4.1,0-6.15,0-.31,0-.38-.09-.37-.38a12.52,12.52,0,0,0,0-1.37,1.69,1.69,0,0,0-1.72-1.69,1.72,1.72,0,0,0-1.71,1.73c0,.47,0,.94,0,1.4,0,.26-.09.31-.32.31H10.55v.83c.1,0,.07.12.08.19.09.56.15,1.13.27,1.68a18.69,18.69,0,0,0,5.44,10A10.16,10.16,0,0,1,19.52,42v5.65a2.23,2.23,0,0,0,2.22,2.22h7.12v-14Z"/><path class="cls-1" d="M44,22c-.18,0-.25,0-.29.24A4,4,0,0,1,35.77,22c-1.41,0-2.81,0-4.22,0-.32,0-.43.05-.42.4,0,2,0,4,0,6.08,0,.36-.11.44-.44.42s-.84,0-1.26,0a1.69,1.69,0,0,0-1.74,1.71,1.72,1.72,0,0,0,1.75,1.72c.44,0,.88,0,1.32,0s.37.09.36.37c0,1.08,0,2.16,0,3.24h0v14h7.41a1.94,1.94,0,0,0,1.93-1.94V40.81A7.34,7.34,0,0,1,43,35.35a20.32,20.32,0,0,0,1.89-1.93A19.33,19.33,0,0,0,49.45,22Z"/><path class="cls-2" d="M36.25,59.88H23.82a4.25,4.25,0,0,1-4.25-4.25V53a1.24,1.24,0,0,1,1.25-1.25H39.25A1.25,1.25,0,0,1,40.5,53v2.66A4.26,4.26,0,0,1,36.25,59.88ZM22.07,54.22v1.41a1.75,1.75,0,0,0,1.75,1.75H36.25A1.76,1.76,0,0,0,38,55.63V54.22Z"/></svg>