<svg id="Layer_1" data-name="Layer 1" xmlns="http://www.w3.org/2000/svg" viewBox="0 0 60 60"><defs><style>.cls-1,.cls-2{fill:#e65100;}.cls-1{fill-rule:evenodd;}.cls-3{fill:#ff9802;}</style></defs><path class="cls-1" d="M48.05,7.46A23.27,23.27,0,0,0,32.13,1a22.06,22.06,0,0,0-22,22.07c0,.13,0,.27,0,.41l-4.52,8A4,4,0,0,0,9.05,37.4h1.24l1,6.84a4.76,4.76,0,0,0,5.25,4.69h.05l5-.73v9.66A1.13,1.13,0,0,0,22.75,59H45.1a1.13,1.13,0,0,0,1.13-1.13V45.17c5.12-6.3,8.67-15.32,8.67-22.08A21.49,21.49,0,0,0,48.05,7.46ZM44.23,44a1.12,1.12,0,0,0-.26.73v12H23.88V46.87a1.12,1.12,0,0,0-1.29-1.12l-6.3.92A2.46,2.46,0,0,1,14.38,46a2.43,2.43,0,0,1-.81-1.86,1.1,1.1,0,0,0,0-.18l-1.16-7.9a1.13,1.13,0,0,0-1.12-1H9.05a1.65,1.65,0,0,1-1.45-.84,1.68,1.68,0,0,1,0-1.68l4.58-8.09a1.15,1.15,0,0,0,.24-.74c0-.26,0-.48,0-.68A19.79,19.79,0,0,1,32.13,3.29c11.11,0,20.5,9.06,20.5,19.8C52.63,29.48,49.18,38.09,44.23,44Z"/><path class="cls-2" d="M32.46,31.39H20.84a1.25,1.25,0,0,1-1.25-1.25V18.61h2.5V28.89h9.12V11h2.5V30.14A1.25,1.25,0,0,1,32.46,31.39Z"/><circle class="cls-3" cx="21.09" cy="18.23" r="4.09"/><circle class="cls-3" cx="32.46" cy="11" r="4.09"/><path class="cls-2" d="M42,36.87h-10v-2.5H40.7v-8.9h2.5V35.62A1.25,1.25,0,0,1,42,36.87Z"/><rect class="cls-2" x="31.21" y="30" width="2.5" height="26.71"/><circle class="cls-3" cx="41.95" cy="23.93" r="4.09"/></svg>