<svg id="Layer_1" data-name="Layer 1" xmlns="http://www.w3.org/2000/svg" viewBox="0 0 60 60"><defs><style>.cls-1{fill:#ff9802;}.cls-1,.cls-2{fill-rule:evenodd;}.cls-2{fill:#e65100;}</style></defs><path class="cls-1" d="M35.29,7.46A16.06,16.06,0,0,0,31.53,7a15.68,15.68,0,0,0-5.94,1.16V15h9.7V7.46Z"/><path class="cls-1" d="M15.62,23.93h8V9.13a15.92,15.92,0,0,0-8,13.81Z"/><path class="cls-1" d="M45.31,15a16,16,0,0,0-8.06-6.91V15Z"/><path class="cls-1" d="M39,31.71a8.46,8.46,0,0,0,8-5.81H31a8.44,8.44,0,0,0,8,5.81Z"/><path class="cls-1" d="M47.45,22.94a15.89,15.89,0,0,0-1.17-6H25.59v7H47.41c0-.23,0-.45,0-.68v-.31Z"/><path class="cls-2" d="M46.58,7.46A23.27,23.27,0,0,0,30.66,1a22.06,22.06,0,0,0-22,22.07c0,.13,0,.27,0,.41l-4.52,8A4,4,0,0,0,7.59,37.4H8.82l1,6.84a4.76,4.76,0,0,0,5.25,4.69h.05l5-.73v9.66A1.13,1.13,0,0,0,21.28,59H43.63a1.12,1.12,0,0,0,1.13-1.13V45.17c5.12-6.3,8.67-15.32,8.67-22.08A21.49,21.49,0,0,0,46.58,7.46ZM42.76,44a1.12,1.12,0,0,0-.26.73v12H22.42V46.87A1.18,1.18,0,0,0,22,46a1.15,1.15,0,0,0-.91-.26l-6.29.92A2.47,2.47,0,0,1,12.91,46a2.43,2.43,0,0,1-.81-1.86,1.09,1.09,0,0,0,0-.18l-1.17-7.9a1.13,1.13,0,0,0-1.12-1H7.59A1.69,1.69,0,0,1,6.12,32.6l4.59-8.09a1.14,1.14,0,0,0,.23-.74c0-.26,0-.48,0-.68A19.79,19.79,0,0,1,30.66,3.29c11.12,0,20.51,9.06,20.51,19.8C51.17,29.48,47.71,38.09,42.76,44Z"/></svg>