<svg id="Layer_1" data-name="Layer 1" xmlns="http://www.w3.org/2000/svg" viewBox="0 0 60 60"><defs><style>.cls-1{fill:#e65100;}.cls-2{fill:#ff9802;}</style></defs><path class="cls-1" d="M45.74,58.92H8.83A3.33,3.33,0,0,1,5.5,55.59V4.41A3.33,3.33,0,0,1,8.83,1.08H45.71A3.33,3.33,0,0,1,49,4.41v7.86a1.25,1.25,0,1,1-2.5,0V4.41a.83.83,0,0,0-.83-.83H8.83A.83.83,0,0,0,8,4.41V55.59a.83.83,0,0,0,.83.83H45.74a.83.83,0,0,0,.82-.83V28.06a1.25,1.25,0,0,1,2.5,0V55.59A3.33,3.33,0,0,1,45.74,58.92Z"/><circle class="cls-2" cx="47.81" cy="17.06" r="5.44"/><path class="cls-2" d="M35.58,14.59H22.08a1.25,1.25,0,0,1,0-2.5h13.5a1.25,1.25,0,0,1,0,2.5Z"/><path class="cls-2" d="M35.58,20.8h-19a1.25,1.25,0,0,1,0-2.5h19a1.25,1.25,0,0,1,0,2.5Z"/><path class="cls-2" d="M35.58,26.72h-20a1.25,1.25,0,0,1,0-2.5h20a1.25,1.25,0,0,1,0,2.5Z"/><path class="cls-2" d="M35.58,33.16h-20a1.25,1.25,0,0,1,0-2.5h20a1.25,1.25,0,1,1,0,2.5Z"/><path class="cls-2" d="M35.58,39.08h-20a1.25,1.25,0,0,1,0-2.5h20a1.25,1.25,0,0,1,0,2.5Z"/><path class="cls-1" d="M46.89,50.35H7.31a1.25,1.25,0,0,1,0-2.5H46.89a1.25,1.25,0,0,1,0,2.5Z"/></svg>