<svg xmlns="http://www.w3.org/2000/svg" width="26" height="38" viewBox="0 0 26 38">
    <g fill="none" fill-rule="evenodd">
        <g>
            <g transform="translate(-816 -801) translate(816.628 802)">
                <circle cx="11.872" cy="12.5" r="6.5" fill="#FFA727"/>
                <path fill="#E7590C" fill-rule="nonzero" stroke="#FFF" stroke-width=".4" d="M22.978 24.586c-.81-.747-1.85-1.398-3.06-1.923l1.372-1.373c2.356-2.355 3.653-5.487 3.653-8.819C24.943 5.595 19.348 0 12.47 0 5.595 0 0 5.595 0 12.471c0 3.332 1.297 6.464 3.653 8.82l1.373 1.372c-1.21.525-2.251 1.176-3.061 1.923C.679 25.77 0 27.165 0 28.617 0 32.757 5.478 36 12.471 36c6.994 0 12.472-3.243 12.472-7.383 0-1.452-.68-2.846-1.965-4.031zM2.109 12.47C2.11 6.758 6.758 2.11 12.471 2.11c5.714 0 10.363 4.649 10.363 10.362 0 2.768-1.078 5.37-3.036 7.328l-7.327 7.327-7.326-7.327c-1.958-1.957-3.036-4.56-3.036-7.328h0zM20.033 32.17c-2.002 1.11-4.688 1.722-7.562 1.722-2.873 0-5.559-.612-7.561-1.722-1.806-1-2.8-2.262-2.8-3.552 0-1.673 1.762-3.335 4.54-4.33l5.821 5.822 5.822-5.821c2.778.994 4.54 2.656 4.54 4.33 0 1.289-.994 2.55-2.8 3.551z"/>
                <path fill="#E7590C" fill-rule="nonzero" stroke="#FFA727" stroke-width=".4" d="M12.471 20.724c4.551 0 8.253-3.702 8.253-8.253 0-4.55-3.702-8.252-8.253-8.252-4.55 0-8.252 3.702-8.252 8.252 0 4.551 3.702 8.253 8.252 8.253zm-1.924-2.418v-4.234l1.924-1.363 1.925 1.363v4.234c-.606.2-1.253.309-1.925.309-.672 0-1.318-.109-1.924-.31zM12.47 6.328c3.388 0 6.144 2.756 6.144 6.143 0 1.845-.818 3.503-2.11 4.63v-4.12l-4.034-2.856-4.034 2.856v4.12c-1.291-1.127-2.109-2.785-2.109-4.63 0-3.387 2.756-6.143 6.143-6.143z"/>
                <path fill="#FBFBFB" d="M14.872 14l-2.5-1.5-2 1.5v4.5s2 1 4.5 0V14z"/>
            </g>
        </g>
    </g>
</svg>
