<svg xmlns="http://www.w3.org/2000/svg" width="36" height="36" viewBox="0 0 36 36">
    <g fill="none" fill-rule="evenodd">
        <g fill="#E85000" fill-rule="nonzero">
            <g>
                <path d="M24 21v-.375c0-1.698 1.02-3.203 2.596-3.831.495-.197 1.007-.294 1.529-.294 1.127 0 2.218.47 2.994 1.288l1.326 1.4c.345-.567.555-1.226.555-1.938V3.75C33 1.679 31.322 0 29.25 0H3.75C1.679 0 0 1.679 0 3.75v13.5C0 19.322 1.679 21 3.75 21H24zM3 6.195v-2.49l13.5 6.3 13.5-6.3v2.49L17.295 12.12c-.255.12-.525.18-.795.18s-.54-.06-.795-.18L3 6.195z" transform="translate(-530 -457) translate(530 457)"/>
                <path d="M35.691 26.976l-6.75-7.125c-.316-.334-.804-.441-1.233-.271-.427.17-.708.585-.708 1.045V24H16.125c-.621 0-1.125.504-1.125 1.125v5.25c0 .621.504 1.125 1.125 1.125H27v3.375c0 .46.28.874.708 1.045.135.053.277.08.417.08.303 0 .6-.123.816-.351l6.75-7.125c.411-.434.411-1.114 0-1.548z" transform="translate(-530 -457) translate(530 457)"/>
            </g>
        </g>
    </g>
</svg>
