<svg id="Layer_1" data-name="Layer 1" xmlns="http://www.w3.org/2000/svg" viewBox="0 0 60 60"><defs><style>.cls-1{fill:#e65100;}.cls-2{fill:#ff9802;}</style></defs><path class="cls-1" d="M9.17,24.86a1.1,1.1,0,0,1-.35-.05A1.24,1.24,0,0,1,8,23.25L12.05,9.68a3.28,3.28,0,0,1,3.11-2.32h21A3.25,3.25,0,0,1,39.27,9.8l1.12,4.32a1.26,1.26,0,0,1-2.43.63l-1.11-4.32a.75.75,0,0,0-.72-.57h-21a.75.75,0,0,0-.71.54L10.37,24A1.25,1.25,0,0,1,9.17,24.86Z"/><path class="cls-1" d="M41.58,52.64H9.28A3.23,3.23,0,0,1,6.11,50.1l-5-22.34a1.26,1.26,0,0,1,1.22-1.52H31.1a1.25,1.25,0,0,1,0,2.5H3.88L8.54,49.55a.75.75,0,0,0,.74.59h32.3a.77.77,0,0,0,.74-.6l2.08-9.29a1.25,1.25,0,1,1,2.44.54l-2.08,9.29A3.27,3.27,0,0,1,41.58,52.64Z"/><path class="cls-2" d="M56.47,23.05l-1.73-.22a7.76,7.76,0,0,0-.52-1.26l1.07-1.37a1.37,1.37,0,0,0-.11-1.82l-1.45-1.44a1.36,1.36,0,0,0-1.82-.12l-1.37,1.07a7.76,7.76,0,0,0-1.26-.52l-.22-1.73a1.37,1.37,0,0,0-1.36-1.21H45.65a1.38,1.38,0,0,0-1.37,1.21l-.22,1.73a8.15,8.15,0,0,0-1.26.52l-1.37-1.07a1.36,1.36,0,0,0-1.81.11l-1.44,1.45a1.36,1.36,0,0,0-.12,1.82l1.06,1.37a8.77,8.77,0,0,0-.52,1.26l-1.72.22a1.37,1.37,0,0,0-1.21,1.36v2.05a1.38,1.38,0,0,0,1.21,1.37l1.72.22a9.27,9.27,0,0,0,.52,1.26l-1.06,1.37a1.36,1.36,0,0,0,.11,1.81l1.45,1.45a1.37,1.37,0,0,0,1.82.11L42.81,33a9.14,9.14,0,0,0,1.25.52l.22,1.72a1.38,1.38,0,0,0,1.37,1.21H47.7a1.37,1.37,0,0,0,1.36-1.21l.22-1.72A8.77,8.77,0,0,0,50.54,33l1.37,1.06a1.37,1.37,0,0,0,1.82-.11l1.44-1.44a1.36,1.36,0,0,0,.12-1.82l-1.07-1.37a8.15,8.15,0,0,0,.52-1.26l1.72-.22a1.38,1.38,0,0,0,1.22-1.37V24.41a1.37,1.37,0,0,0-1.21-1.36Zm-9.8,7a4.59,4.59,0,1,1,4.59-4.58A4.59,4.59,0,0,1,46.67,30Z"/></svg>