<svg id="Layer_1" data-name="Layer 1" xmlns="http://www.w3.org/2000/svg" viewBox="0 0 60 60"><defs><style>.cls-1{fill:#ff9802;}.cls-2{fill:#e65100;}.cls-3{fill:#fff;}</style></defs><path class="cls-1" d="M30,47.16A12.45,12.45,0,0,1,37.9,36.39a11.6,11.6,0,0,1,7.1-.54V3.16a2,2,0,0,0-2-2H9.5a2,2,0,0,0-2,2V55.75a2,2,0,0,0,2,2H35.15A12.2,12.2,0,0,1,30,47.16Z"/><path class="cls-2" d="M42.61,59A11.14,11.14,0,1,1,53.75,47.87,11.15,11.15,0,0,1,42.61,59Zm0-19.77a8.64,8.64,0,1,0,8.64,8.64A8.65,8.65,0,0,0,42.61,39.23Z"/><path class="cls-2" d="M46.5,50.43H42.61a1.25,1.25,0,0,1-1.25-1.25v-7a1.25,1.25,0,0,1,2.5,0v5.77H46.5a1.25,1.25,0,0,1,0,2.5Z"/><path class="cls-3" d="M36,10.16H16.5a1.25,1.25,0,0,1,0-2.5H36a1.25,1.25,0,0,1,0,2.5Z"/><path class="cls-3" d="M36,15.91H16.5a1.25,1.25,0,0,1,0-2.5H36a1.25,1.25,0,0,1,0,2.5Z"/><path class="cls-3" d="M36,21.69H16.5a1.25,1.25,0,0,1,0-2.5H36a1.25,1.25,0,0,1,0,2.5Z"/></svg>