<svg id="Layer_1" data-name="Layer 1" xmlns="http://www.w3.org/2000/svg" viewBox="0 0 60 60"><defs><style>.cls-1{fill:#ff9802;}.cls-2{fill:#e65100;stroke:#e65100;stroke-miterlimit:10;stroke-width:0.5px;}</style></defs><path class="cls-1" d="M7,7a6,6,0,1,1,5.95,6A6,6,0,0,1,7,7Z"/><path class="cls-1" d="M2.3,20.08l1.46,11a4.3,4.3,0,0,0,2.78,3.55L9,57.27A2,2,0,0,0,11,59h3.91a2,2,0,0,0,2-1.73L18,46.68l2.76-25.87a.28.28,0,0,1,.25-.24l14-.9a2.15,2.15,0,0,0,2-1.83,2.07,2.07,0,0,0-1.83-2.28h-.09l-15.84-1-2.62,0a.21.21,0,0,0-.18.09l-3.09,3.85a.59.59,0,0,1-.83.12.49.49,0,0,1-.13-.12L9.35,14.57a.26.26,0,0,0-.19-.1H7.3a5,5,0,0,0-5,5A5.44,5.44,0,0,0,2.3,20.08Z"/><path class="cls-2" d="M55.52,36.18h-4.8a.13.13,0,0,1-.13-.12s0-.12,0-.16L54,32.49a2.21,2.21,0,0,0,0-3.12l-3.28-3.28a2.21,2.21,0,0,0-3.12,0l-3.41,3.4a.24.24,0,0,1-.16,0s-.09-.08-.09-.12v-4.8a2.21,2.21,0,0,0-2.21-2.22H37.13a2.21,2.21,0,0,0-2.21,2.22v4.8a.14.14,0,0,1-.13.12s-.12,0-.16,0l-3.37-3.36a2.21,2.21,0,0,0-3.12,0l-3.28,3.28a2.21,2.21,0,0,0,0,3.12l3.41,3.41a.24.24,0,0,1,0,.16s-.08.08-.12.08H23.34a2.21,2.21,0,0,0-2.21,2.22V43a2.2,2.2,0,0,0,2.21,2.21h4.8a.13.13,0,0,1,.13.13s0,.12,0,.16L24.82,49a2.2,2.2,0,0,0,0,3.11l3.28,3.29a2.21,2.21,0,0,0,3.12,0l3.41-3.41a.24.24,0,0,1,.16,0s.08.08.08.12v4.76A2.21,2.21,0,0,0,37.09,59h4.64a2.2,2.2,0,0,0,2.21-2.22V52a.13.13,0,0,1,.13-.12s.12,0,.16,0l3.41,3.41a2.21,2.21,0,0,0,3.12,0L54,52a2.21,2.21,0,0,0,0-3.12l-3.41-3.4a.15.15,0,0,1,0-.21.2.2,0,0,1,.13-.08h4.8A2.2,2.2,0,0,0,57.73,43V38.36A2.25,2.25,0,0,0,55.52,36.18Zm.2,6.81h-.08a.17.17,0,0,1-.16.17H50.72a2.24,2.24,0,0,0-2.06,1.35,2.15,2.15,0,0,0,.5,2.38l3.4,3.41a.18.18,0,0,1,0,.2l-3.28,3.29a.2.2,0,0,1-.21,0l-3.4-3.41a2.23,2.23,0,0,0-3.78,1.56v4.84a.17.17,0,0,1-.16.17h-4.6a.17.17,0,0,1-.16-.17V52a2.25,2.25,0,0,0-1.36-2,2.15,2.15,0,0,0-.86-.16,2.09,2.09,0,0,0-1.56.65l-3.4,3.41a.2.2,0,0,1-.21,0L26.3,50.55a.2.2,0,0,1,0-.21l3.4-3.41a2.22,2.22,0,0,0-1.56-3.77h-4.8a.17.17,0,0,1-.16-.17V38.36a.18.18,0,0,1,.16-.17h4.8a2.24,2.24,0,0,0,2.06-1.35,2.15,2.15,0,0,0-.5-2.38l-3.36-3.41a.18.18,0,0,1,0-.2l3.28-3.29a.2.2,0,0,1,.21,0L33.23,31A2.23,2.23,0,0,0,37,29.41v-4.8a.17.17,0,0,1,.16-.16h4.64a.17.17,0,0,1,.16.16v4.8a2.25,2.25,0,0,0,1.36,2.05A2.14,2.14,0,0,0,45.71,31l3.4-3.41a.2.2,0,0,1,.21,0l3.28,3.29a.18.18,0,0,1,0,.2l-3.4,3.41a2.22,2.22,0,0,0,1.56,3.77h4.8a.18.18,0,0,1,.16.17Z"/><path class="cls-2" d="M39.43,34.83A5.54,5.54,0,1,0,45,40.37,5.54,5.54,0,0,0,39.43,34.83Zm-3.49,5.54a3.49,3.49,0,1,1,3.49,3.49A3.49,3.49,0,0,1,35.94,40.37Z"/></svg>