<svg id="Layer_1" data-name="Layer 1" xmlns="http://www.w3.org/2000/svg" viewBox="0 0 60 60"><defs><style>.cls-1{fill:#ff9802;}.cls-2,.cls-5{fill:none;stroke:#ff9802;stroke-linecap:round;stroke-width:2.5px;}.cls-2,.cls-3{stroke-miterlimit:10;}.cls-3,.cls-4{fill:#e65100;}.cls-3{stroke:#e65100;stroke-width:0.5px;}.cls-5{stroke-linejoin:round;}</style></defs><path class="cls-1" d="M31.36,48l-1.17.67L30,49v1.82a.91.91,0,0,1-1.81,0v-2.6a.93.93,0,0,1,.45-.79l1.81-1A.91.91,0,0,1,31.36,48ZM29.55,6.9a.88.88,0,0,1,.5-.8l1.81-.91a.9.9,0,1,1,.93,1.55l-.12.06-1.31.67V8.71a.91.91,0,1,1-1.81,0Zm23.09,31V41a1.45,1.45,0,0,1-.57.91L40,48.62v-2a1.13,1.13,0,0,0-.52-.9l-6.65-3.79a1.21,1.21,0,0,0-1.05,0l-6.65,3.8a1.1,1.1,0,0,0-.52.9v2L12.46,41.94a1.46,1.46,0,0,1-.57-.9V31l6.26-3.57a1.14,1.14,0,0,0,.53-.91V19a1.11,1.11,0,0,0-.53-.9l-2-1.15L26,11.48a.93.93,0,0,0,.36.4L31.81,15a.8.8,0,0,0,.45.1.82.82,0,0,0,.46-.1l5.43-3.07a.9.9,0,0,0,.34-.38l1.47.78,1-1.28L38.6,9.46V4.93a.91.91,0,0,0-.45-.74L32.72,1.12a.82.82,0,0,0-.46-.1.8.8,0,0,0-.45.1L26.38,4.19a1,1,0,0,0-.46.73V9.45L14.31,15.87l-2.8-1.6a1.21,1.21,0,0,0-1,0L3.81,18.06a1.16,1.16,0,0,0-.53.91v7.57a1.16,1.16,0,0,0,.53.91L10.08,31V41a3.17,3.17,0,0,0,1.51,2.51l13,7.16v3.47a1.13,1.13,0,0,0,.52.91l6.65,3.79a1.14,1.14,0,0,0,1.05,0l6.65-3.79a1.15,1.15,0,0,0,.52-.91V50.69l13-7.16A3.17,3.17,0,0,0,54.45,41L54,38ZM10.08,20.37,8.9,21l-.18.35V23.2a.91.91,0,1,1-1.81,0V20.61a.9.9,0,0,1,.45-.79l1.81-1a.91.91,0,0,1,.91,1.58Z"/><line class="cls-2" x1="27" y1="9.67" x2="14.19" y2="16.98"/><path class="cls-3" d="M22.67,30.08a.85.85,0,0,0-.73,0l-4.7,2.6a.77.77,0,0,0-.37.61v5.19a.75.75,0,0,0,.37.61l4.7,2.6a.85.85,0,0,0,.73,0l4.69-2.6a.78.78,0,0,0,.38-.61V33.29a.78.78,0,0,0-.38-.62Zm3.25,7.74-3.62,2-3.62-2V34l3.62-2,3.62,2Z"/><path class="cls-4" d="M44,39.61a2.83,2.83,0,0,1-1.28-.3L33.33,34A2.88,2.88,0,0,1,32,31.73V21.09a2.86,2.86,0,0,1,1.32-2.31l9.41-5.31a3,3,0,0,1,2.64,0l9.41,5.31.06,0A2.87,2.87,0,0,1,56.12,21V31.66A2.87,2.87,0,0,1,54.8,34l-9.41,5.32A3.1,3.1,0,0,1,44,39.61Zm0-24a.39.39,0,0,0-.2,0l-9.3,5.25a.38.38,0,0,0-.11.23v10.5a.36.36,0,0,0,.15.19l9.3,5.25a.39.39,0,0,0,.31,0l9.3-5.25a.38.38,0,0,0,.1-.24V21.09a.46.46,0,0,0-.14-.18l-9.32-5.27Z"/><polyline class="cls-5" points="10.95 29.72 10.95 41.77 26.15 50.27"/><polyline class="cls-5" points="53.53 38.36 53.53 41.77 39.03 49.79"/><line class="cls-2" x1="37.5" y1="9.62" x2="40.4" y2="11.25"/></svg>