<svg id="Layer_1" data-name="Layer 1" xmlns="http://www.w3.org/2000/svg" viewBox="0 0 60 60"><defs><style>.cls-1{fill:#ff9802;}.cls-2{fill:#e65100;}</style></defs><path class="cls-1" d="M45.17,36H37.3A1.29,1.29,0,0,0,36,37.29v7.87a1.3,1.3,0,0,0,1.3,1.29h7.87a1.28,1.28,0,0,0,1.27-1.29V37.29A1.27,1.27,0,0,0,45.17,36Zm0,7.87a1.29,1.29,0,0,1-1.29,1.28H38.57a1.27,1.27,0,0,1-1.27-1.28v-5.3a1.28,1.28,0,0,1,1.27-1.29h5.31a1.3,1.3,0,0,1,1.29,1.29Z"/><path class="cls-1" d="M43.88,39.86V42.6a1.28,1.28,0,0,1-1.28,1.28H39.86a1.3,1.3,0,0,1-1.29-1.28V39.86a1.29,1.29,0,0,1,1.29-1.28H42.6A1.28,1.28,0,0,1,43.88,39.86Z"/><path class="cls-1" d="M58.73,36H50.86a1.3,1.3,0,0,0-1.3,1.29v7.87a1.29,1.29,0,0,0,1.3,1.28h7.87A1.27,1.27,0,0,0,60,45.16V37.29A1.28,1.28,0,0,0,58.73,36Zm0,7.87a1.3,1.3,0,0,1-1.29,1.29H52.13a1.28,1.28,0,0,1-1.27-1.29v-5.3a1.27,1.27,0,0,1,1.27-1.28h5.31a1.29,1.29,0,0,1,1.29,1.28Z"/><path class="cls-1" d="M45.17,49.56H37.3A1.29,1.29,0,0,0,36,50.84v7.87A1.3,1.3,0,0,0,37.3,60h7.87a1.28,1.28,0,0,0,1.27-1.29V50.84A1.27,1.27,0,0,0,45.17,49.56Zm0,7.87a1.29,1.29,0,0,1-1.29,1.28H38.57a1.27,1.27,0,0,1-1.27-1.28v-5.3a1.28,1.28,0,0,1,1.27-1.29h5.31a1.3,1.3,0,0,1,1.29,1.29Z"/><rect class="cls-1" x="49.57" y="49.56" width="2.62" height="2.51"/><rect class="cls-1" x="52.19" y="52.07" width="2.63" height="2.63"/><rect class="cls-1" x="49.57" y="54.7" width="2.62" height="1.97"/><polygon class="cls-1" points="57.45 57.33 57.45 59.96 60 59.96 60 60 49.57 60 49.57 57.99 52.19 57.99 52.19 59.96 54.82 59.96 54.82 57.33 56.14 57.33 56.14 56.02 54.82 56.02 54.82 54.7 60 54.7 60 55.86 58.62 55.86 58.62 57.33 57.45 57.33"/><rect class="cls-1" x="54.82" y="49.56" width="5.18" height="2.51"/><path class="cls-1" d="M43.88,53.41v2.74a1.28,1.28,0,0,1-1.28,1.28H39.86a1.3,1.3,0,0,1-1.29-1.28V53.41a1.29,1.29,0,0,1,1.29-1.28H42.6A1.28,1.28,0,0,1,43.88,53.41Z"/><path class="cls-1" d="M57.44,39.85v2.74a1.28,1.28,0,0,1-1.28,1.28H53.42a1.29,1.29,0,0,1-1.29-1.28V39.85a1.3,1.3,0,0,1,1.29-1.28h2.74A1.28,1.28,0,0,1,57.44,39.85Z"/><path class="cls-1" d="M25.69,0H2.21A2.21,2.21,0,0,0,0,2.21V22.43a2.21,2.21,0,0,0,2.21,2.2H25.69a2.21,2.21,0,0,0,2.2-2.2V2.21A2.21,2.21,0,0,0,25.69,0ZM17.3,8.8h1.41a1.25,1.25,0,0,1,0,2.5H16.94a5.3,5.3,0,0,1-.67,1.32A6.05,6.05,0,0,1,12.34,15l4.53,3.86a1.25,1.25,0,0,1-.81,2.2,1.23,1.23,0,0,1-.81-.3L8.37,14.87a1.26,1.26,0,0,1,.87-2.21c2.41.12,4-.35,4.88-1.36H9.18a1.25,1.25,0,0,1,0-2.5H14.8a6.93,6.93,0,0,0-.18-1.25H9.18a1.25,1.25,0,0,1,0-2.5h9.53a1.25,1.25,0,0,1,0,2.5H17.17A11.19,11.19,0,0,1,17.3,8.8Z"/><path class="cls-2" d="M5.31,35a1.25,1.25,0,0,1-1-2l4.53-6.17a1.26,1.26,0,0,1,.86-.5,1.3,1.3,0,0,1,1,.29l6,5.13a1.25,1.25,0,1,1-1.61,1.9l-5-4.25L6.32,34.44A1.25,1.25,0,0,1,5.31,35Z"/><path class="cls-2" d="M31.93,52.75A22.77,22.77,0,0,1,9.18,30a1.25,1.25,0,0,1,2.5,0A20.27,20.27,0,0,0,31.93,50.25a1.25,1.25,0,1,1,0,2.5Z"/><path class="cls-2" d="M52.18,34.26a1.23,1.23,0,0,1-.8-.29l-6-5.13A1.25,1.25,0,1,1,47,26.94l5,4.25,3.74-5.08a1.25,1.25,0,1,1,2,1.48l-4.53,6.17a1.28,1.28,0,0,1-.86.5Z"/><path class="cls-2" d="M51.5,31.25A1.25,1.25,0,0,1,50.25,30,20.27,20.27,0,0,0,30,9.75a1.25,1.25,0,0,1,0-2.5A22.77,22.77,0,0,1,52.75,30,1.25,1.25,0,0,1,51.5,31.25Z"/></svg>