<svg id="Layer_1" data-name="Layer 1" xmlns="http://www.w3.org/2000/svg" viewBox="0 0 60 60"><defs><style>.cls-1{fill:#e65100;}.cls-2{fill:#ff9802;}</style></defs><path class="cls-1" d="M37.84,28.94A14.22,14.22,0,1,1,52,14.78,14.17,14.17,0,0,1,37.84,28.94ZM37.84,3A11.72,11.72,0,1,0,49.5,14.78,11.73,11.73,0,0,0,37.84,3Z"/><circle class="cls-1" cx="34.48" cy="9.68" r="1.69"/><circle class="cls-1" cx="41.25" cy="19.82" r="1.69"/><path class="cls-1" d="M42.66,10.62,35.89,20.76a1.69,1.69,0,0,1-2.81-1.87L39.84,8.74a1.69,1.69,0,1,1,2.82,1.88Z"/><path class="cls-2" d="M1.63,43.41a1.69,1.69,0,0,0,0,2.39l11.84,12a1.69,1.69,0,0,0,2.39,0l2.4-2.39a1.7,1.7,0,0,0,0-2.4L6.42,41A1.69,1.69,0,0,0,4,41Z"/><path class="cls-2" d="M45.48,47.63l12.85-12a1.69,1.69,0,0,0,0-2.42l0,0a5.24,5.24,0,0,0-7,.07l-7.29,6.56a4.93,4.93,0,0,1-3.5,1.41H30a1.69,1.69,0,0,1,0-3.38H40.15a3.39,3.39,0,0,0,0-6.77h-7a10.62,10.62,0,0,0-14.64-.61L9.34,39.15,20.15,50.08l2-2H44.32a1.68,1.68,0,0,0,1.16-.47Z"/></svg>