<svg id="Layer_1" data-name="Layer 1" xmlns="http://www.w3.org/2000/svg" viewBox="0 0 60 60"><defs><style>.cls-1{fill:#ff9802;}.cls-2{fill:#e65100;}.cls-3{fill:none;stroke:#e65100;stroke-linecap:round;stroke-linejoin:round;stroke-width:2.5px;}</style></defs><path class="cls-1" d="M27.65,16.72A10.16,10.16,0,1,0,32.11,36V28.86h4.16V21.51A10.18,10.18,0,0,0,27.65,16.72Zm4.81,9.06-5.05,5a1.61,1.61,0,0,1-2.31,0l-2.49-2.49a1.64,1.64,0,0,1,1.15-2.8,1.69,1.69,0,0,1,1.16.48l1.4,1.4,3.89-3.89A1.65,1.65,0,0,1,33,24.69,3.73,3.73,0,0,1,32.46,25.78Z"/><path class="cls-2" d="M32.11,45.82H1.87A1.24,1.24,0,0,1,.62,44.57V8.05A1.24,1.24,0,0,1,1.87,6.8H53.44a1.25,1.25,0,0,1,1.25,1.25V18.21a1.25,1.25,0,0,1-1.25,1.25H37.52v9.4a1.25,1.25,0,0,1-1.25,1.25H33.36V44.57A1.25,1.25,0,0,1,32.11,45.82Zm-29-2.5H30.86V28.86a1.25,1.25,0,0,1,1.25-1.25H35v-9.4A1.25,1.25,0,0,1,36.27,17H52.19V9.3H3.12Z"/><path class="cls-2" d="M32.11,51.2H19.24a1.25,1.25,0,1,1,0-2.5H32.11a1.25,1.25,0,0,1,0,2.5Z"/><path class="cls-2" d="M27.65,51.2A1.25,1.25,0,0,1,26.4,50V44.57a1.25,1.25,0,0,1,2.5,0V50A1.25,1.25,0,0,1,27.65,51.2Z"/><path class="cls-2" d="M58.13,53.2H47.71A1.25,1.25,0,0,1,46.46,52V40.08a1.23,1.23,0,0,1,.46-1,1.25,1.25,0,0,1,1-.28A1.25,1.25,0,0,1,49,40.64V50.7h7.92V19.46H37.52v8.15h5.27a1.25,1.25,0,1,1,0,2.5H36.27A1.25,1.25,0,0,1,35,28.86V18.21A1.25,1.25,0,0,1,36.27,17H58.13a1.24,1.24,0,0,1,1.25,1.25V52A1.24,1.24,0,0,1,58.13,53.2Z"/><path class="cls-1" d="M47.86,26.55a6.69,6.69,0,0,0-5.07,2.31h4.93v4.07l1.84-1.84a1.08,1.08,0,0,1,.77-.33,1.07,1.07,0,0,1,.77.33,1.11,1.11,0,0,1,.33.77,3,3,0,0,1-.37.73l-3.34,3.34v4.15h.14a6.77,6.77,0,1,0,0-13.54Z"/><path class="cls-3" d="M32.11,28.86V53H47.72V28.86Z"/><path class="cls-2" d="M40.49,51H39.34a1.25,1.25,0,0,1,0-2.5h1.15a1.25,1.25,0,0,1,0,2.5Z"/><path class="cls-2" d="M49,50H47.85a1.25,1.25,0,0,1,0-2.5H49A1.25,1.25,0,0,1,49,50Z"/><path class="cls-1" d="M41.2,34.49a4.88,4.88,0,0,0-1.28-.17,5,5,0,0,0-3.65,1.6,5,5,0,0,0,3.65,8.32,5,5,0,0,0,4.95-4.86.34.34,0,0,0,0-.1A5,5,0,0,0,41.2,34.49Zm1.06,4.25L39.8,41.21a.81.81,0,0,1-1.13,0L37.45,40a.8.8,0,1,1,1.13-1.13l.68.68,1.9-1.9a.81.81,0,0,1,.57-.23.79.79,0,0,1,.56.23.82.82,0,0,1,.24.57A1.77,1.77,0,0,1,42.26,38.74Z"/></svg>