<svg xmlns="http://www.w3.org/2000/svg" width="38" height="38" viewBox="0 0 38 38">
    <g fill="none" fill-rule="evenodd">
        <g>
            <g transform="translate(-813 -681) translate(814 682)">
                <circle cx="18" cy="18" r="13" fill="#FFA727"/>
                <path fill="#FBFBFB" d="M17 12L17 18.5 20.5 22 21.5 22 22 21 21.5 20.5 19 18 19 17.5 19 16 19 11.5 18.5 11.5 18 11 17.5 11.5z"/>
                <g fill="#E7590C" fill-rule="nonzero" stroke="#E7590C" stroke-width=".2">
                    <path d="M30.728 5.272C27.328 1.872 22.808 0 18 0c-3.456 0-6.813.982-9.709 2.84-.277.178-.358.547-.18.825.178.277.547.358.825.18C11.639 2.11 14.773 1.193 18 1.193c9.267 0 16.807 7.54 16.807 16.807 0 3-.8 5.944-2.314 8.515-1.47 2.495-3.571 4.582-6.077 6.035-.285.165-.382.53-.217.816.111.19.311.297.517.297.102 0 .205-.026.299-.08 2.683-1.556 4.933-3.79 6.506-6.463C35.143 24.367 36 21.213 36 18c0-4.808-1.872-9.328-5.272-12.728zM24.975 33.96c-.122-.306-.468-.456-.775-.334-1.973.783-4.059 1.18-6.2 1.18-9.267 0-16.807-7.539-16.807-16.806 0-4.911 2.141-9.564 5.874-12.764.25-.215.28-.591.065-.841-.215-.25-.591-.28-.841-.065C2.293 7.758 0 12.74 0 18c0 4.808 1.872 9.328 5.272 12.728C8.672 34.128 13.192 36 18 36c2.292 0 4.527-.426 6.64-1.265.307-.122.457-.469.335-.775z"/>
                    <path d="M27.692 8.435c-.017-.024-.036-.047-.058-.07-.021-.02-.045-.04-.069-.057-2.462-2.43-5.84-3.933-9.565-3.933-3.724 0-7.104 1.503-9.566 3.933-.023.017-.047.036-.068.058-.022.021-.041.045-.059.069-2.43 2.462-3.932 5.84-3.932 9.565 0 3.724 1.503 7.103 3.932 9.565.018.024.037.047.059.07.021.02.045.04.069.057 2.461 2.43 5.84 3.933 9.565 3.933 3.724 0 7.103-1.503 9.565-3.933.024-.017.047-.036.07-.058.02-.022.04-.045.057-.069 2.43-2.462 3.933-5.841 3.933-9.565 0-3.724-1.503-7.103-3.933-9.565zm-.494 17.92l-2.03-2.03c-.233-.234-.61-.234-.844 0-.233.232-.233.61 0 .843l2.03 2.03c-2.07 1.883-4.779 3.077-7.757 3.219V27.54c0-.33-.267-.596-.597-.596-.33 0-.597.267-.597.596v2.877c-2.978-.142-5.686-1.336-7.757-3.219l2.03-2.03c.233-.233.233-.61 0-.844-.233-.233-.61-.233-.844 0l-2.03 2.03c-1.883-2.07-3.077-4.779-3.219-7.757H8.46c.33 0 .596-.267.596-.597 0-.33-.267-.596-.596-.596H5.583c.142-2.98 1.336-5.687 3.219-7.758l2.03 2.03c.117.116.27.175.422.175.153 0 .306-.058.422-.175.233-.233.233-.61 0-.844l-2.03-2.03c2.071-1.883 4.779-3.077 7.758-3.219V8.46c0 .33.267.597.596.597.33 0 .597-.268.597-.597V5.583c2.979.142 5.686 1.336 7.757 3.219l-2.03 2.03c-.233.233-.233.61 0 .844.117.116.27.175.422.175.153 0 .306-.059.422-.175l2.03-2.03c1.883 2.07 3.078 4.779 3.219 7.757H27.54c-.33 0-.596.267-.596.597 0 .33.267.597.596.597h2.877c-.141 2.978-1.336 5.686-3.219 7.757z"/>
                    <path d="M22.49 19.96l-2.7-2.701v-5.266c0-.987-.803-1.79-1.79-1.79s-1.79.803-1.79 1.79V18c0 .478.186.928.524 1.266l3.225 3.224c.338.338.788.525 1.266.525s.927-.187 1.265-.525c.339-.338.525-.787.525-1.265 0-.478-.186-.928-.524-1.266zm-.843 1.687c-.113.112-.263.175-.422.175-.16 0-.31-.063-.422-.175l-3.225-3.225c-.113-.113-.175-.263-.175-.422v-6.007c0-.329.268-.596.597-.596.329 0 .597.267.597.596v5.76l3.05 3.05c.112.113.174.263.174.422 0 .16-.062.309-.174.422z"/>
                </g>
            </g>
        </g>
    </g>
</svg>
