<svg id="Layer_1" data-name="Layer 1" xmlns="http://www.w3.org/2000/svg" viewBox="0 0 60 60"><defs><style>.cls-1{fill:#ff9802;}.cls-2{fill:#e65100;}</style></defs><path class="cls-1" d="M58.23,41.79l-4.52-3,.63-3.6H5.66l.63,3.6-4.52,3A2.08,2.08,0,0,0,2.91,45.6a2,2,0,0,0,1.15-.36l3-2.08,1.62,9.5A6.26,6.26,0,0,0,14.91,58H45.15A6.25,6.25,0,0,0,51.4,52.7l1.52-9.44,3,2a2,2,0,0,0,1.19.36,2.09,2.09,0,0,0,2.07-2.1A2.07,2.07,0,0,0,58.23,41.79Zm-35.95,10-.11,0a2.09,2.09,0,0,1-2.56-1.47l0-.11L17.5,41.93a2.14,2.14,0,0,1,4.17-1l2.08,8.34A2.08,2.08,0,0,1,22.28,51.82Zm9.8-2a2.08,2.08,0,1,1-4.16,0V41.43a2.08,2.08,0,0,1,4.16,0Zm8.34.5a2.14,2.14,0,0,1-4.17-1l2.08-8.34a2.09,2.09,0,0,1,4.09.84c0,.06,0,.11,0,.16h.12Z"/><path class="cls-2" d="M57.53,32.93H2.47a1.25,1.25,0,1,1,0-2.5H57.53a1.25,1.25,0,0,1,0,2.5Z"/><path class="cls-2" d="M52.5,32.93a1.25,1.25,0,0,1-1.25-1.25V5A1.76,1.76,0,0,0,49.5,3.23H9A1.76,1.76,0,0,0,7.25,5v26.7a1.25,1.25,0,0,1-2.5,0V5A4.26,4.26,0,0,1,9,.73H49.5A4.26,4.26,0,0,1,53.75,5v26.7A1.25,1.25,0,0,1,52.5,32.93Z"/><path class="cls-2" d="M29.25,25.39a8.56,8.56,0,1,1,8.56-8.56A8.57,8.57,0,0,1,29.25,25.39Zm0-15.12a6.56,6.56,0,1,0,6.56,6.56A6.57,6.57,0,0,0,29.25,10.27Z"/><path class="cls-2" d="M32,14.91a.19.19,0,0,0-.13-.05h-1A2,2,0,0,0,30.5,14h1.34A.17.17,0,0,0,32,14a.19.19,0,0,0,.05-.13v-.59a.19.19,0,0,0-.05-.13.17.17,0,0,0-.13-.05H27.05a.17.17,0,0,0-.14.05.19.19,0,0,0-.05.13V14a.18.18,0,0,0,.06.13.19.19,0,0,0,.13.05h.83c.81,0,1.33.22,1.54.65H27.05a.17.17,0,0,0-.19.19v.58a.17.17,0,0,0,.19.19H29.5a1.13,1.13,0,0,1-.59.72,2.62,2.62,0,0,1-1.22.24h-.64a.16.16,0,0,0-.13.06.18.18,0,0,0-.06.13v.73a.21.21,0,0,0,.05.13Q28,19,29.78,21.12a.18.18,0,0,0,.14.06h1.13a.18.18,0,0,0,.14-.3c-1.12-1.37-2-2.4-2.64-3.08a2.94,2.94,0,0,0,1.59-.64,2.16,2.16,0,0,0,.74-1.34h1a.19.19,0,0,0,.13-.05.17.17,0,0,0,.05-.14v-.58A.17.17,0,0,0,32,14.91Z"/></svg>