<svg xmlns="http://www.w3.org/2000/svg" width="32" height="32" viewBox="0 0 32 32">
    <g fill="none" fill-rule="evenodd">
        <g>
            <g>
                <path fill="#FFA727" d="M8.64 1.28L5.12 1.92 1.92 5.12 1.28 10.56 5.12 19.52 15.04 27.84 20.8 30.72 25.92 30.72 29.44 27.84 30.72 23.36 24 21.44 20.16 24.96 10.56 17.6 7.36 11.52 10.56 8.64z" transform="translate(-811 -569) translate(811 569)"/>
                <g fill="#E7590C" fill-rule="nonzero">
                    <path d="M22.998 32c-1.033 0-2.057-.183-3.058-.546-4.413-1.603-8.508-4.214-11.844-7.55C4.76 20.568 2.149 16.473.546 12.06.031 10.642-.12 9.18.095 7.71.297 6.334.83 4.998 1.636 3.847c.81-1.156 1.89-2.118 3.124-2.781C6.075.359 7.51 0 9.026 0c.472 0 .879.33.978.79l1.57 7.325c.07.332-.032.677-.271.917L8.62 11.714c2.53 5.03 6.635 9.135 11.665 11.665l2.682-2.682c.24-.24.585-.341.917-.27l7.324 1.569c.461.099.79.506.79.978 0 1.516-.358 2.951-1.065 4.266-.663 1.233-1.625 2.314-2.781 3.124-1.151.806-2.487 1.34-3.863 1.541-.431.063-.862.095-1.292.095zM8.228 2.044c-2 .22-3.775 1.268-4.954 2.95-1.325 1.892-1.634 4.219-.848 6.384 3.082 8.482 9.714 15.114 18.196 18.196 2.165.786 4.492.477 6.383-.848 1.682-1.179 2.73-2.953 2.951-4.953l-5.958-1.277-2.801 2.801c-.298.298-.751.377-1.132.198-5.95-2.795-10.765-7.61-13.56-13.56-.18-.381-.1-.834.198-1.132l2.8-2.8-1.276-5.96zM31 17c-.552 0-1-.448-1-1 0-7.72-6.28-14-14-14-.552 0-1-.448-1-1s.448-1 1-1c4.274 0 8.292 1.664 11.314 4.686C30.336 7.708 32 11.726 32 16c0 .553-.448 1-1 1z" transform="translate(-811 -569) translate(811 569)"/>
                    <path d="M27 17c-.552 0-1-.448-1-1 0-5.514-4.486-10-10-10-.552 0-1-.448-1-1s.448-1 1-1c6.617 0 12 5.383 12 12 0 .552-.448 1-1 1z" transform="translate(-811 -569) translate(811 569)"/>
                    <path d="M23 17c-.552 0-1-.448-1-1 0-3.309-2.691-6-6-6-.552 0-1-.448-1-1 0-.553.448-1 1-1 4.412 0 8 3.588 8 8 0 .552-.447 1-1 1z" transform="translate(-811 -569) translate(811 569)"/>
                </g>
            </g>
        </g>
    </g>
</svg>
