<svg xmlns="http://www.w3.org/2000/svg" width="30" height="30" viewBox="0 0 30 30">
    <g fill="none" fill-rule="evenodd">
        <g fill="#E65100" fill-rule="nonzero" stroke="#FFF3E0" stroke-width=".8">
            <g>
                <path d="M46.6 44.6V39h2.8v5.6H55v2.8h-5.6V53h-2.8v-5.6H41v-2.8h5.6zM48 60c-7.732 0-14-6.268-14-14s6.268-14 14-14 14 6.268 14 14-6.268 14-14 14zm0-2.8c6.186 0 11.2-5.014 11.2-11.2 0-6.186-5.014-11.2-11.2-11.2-6.186 0-11.2 5.014-11.2 11.2 0 6.186 5.014 11.2 11.2 11.2z" transform="translate(-335 -1508) translate(302 1477)"/>
            </g>
        </g>
    </g>
</svg>
