<svg id="Layer_1" data-name="Layer 1" xmlns="http://www.w3.org/2000/svg" viewBox="0 0 60 60"><defs><style>.cls-1{fill:#e65100;}.cls-2{fill:#ff9802;}</style></defs><path class="cls-1" d="M31.29,32.13H17.79a1.25,1.25,0,1,1,0-2.5H30V12.88a1.25,1.25,0,0,1,2.5,0v18A1.25,1.25,0,0,1,31.29,32.13Z"/><path class="cls-1" d="M57.3,32.89a1.25,1.25,0,0,1-1.25-1.2c-1.14-26.56-24.59-28-25.59-28a1.25,1.25,0,0,1,.11-2.5c.27,0,26.74,1.54,28,30.41a1.26,1.26,0,0,1-1.2,1.31Z"/><path class="cls-1" d="M31,58.83A31.12,31.12,0,0,1,4.57,43C-2.89,28.5,3.9,16.43,7.36,11.72H3.51a1.25,1.25,0,0,1,0-2.5H10a1.25,1.25,0,0,1,.9,2.12c-.53.54-12.84,13.5-4.11,30.47A28.87,28.87,0,0,0,31.39,56.32a1.26,1.26,0,0,1,1.3,1.2,1.24,1.24,0,0,1-1.19,1.3Z"/><path class="cls-1" d="M10.9,18.28A1.25,1.25,0,0,1,9.67,17.2l-.93-6.56A1.26,1.26,0,0,1,9.81,9.23a1.24,1.24,0,0,1,1.41,1.06l.92,6.56a1.25,1.25,0,0,1-1.06,1.42Z"/><path class="cls-2" d="M45.4,31.59A13.39,13.39,0,1,0,58.79,45,13.38,13.38,0,0,0,45.4,31.59Zm7.68,8.9L43.49,51.14a1.19,1.19,0,0,1-.9.41h0a1.26,1.26,0,0,1-.9-.37l-3.91-4a1.25,1.25,0,0,1,1.79-1.74l3,3.06,8.69-9.66a1.25,1.25,0,0,1,1.86,1.67Z"/></svg>