<svg id="Layer_1" data-name="Layer 1" xmlns="http://www.w3.org/2000/svg" viewBox="0 0 60 60"><defs><style>.cls-1{fill:#ff9802;}.cls-2{fill:#e65100;}</style></defs><path class="cls-1" d="M9.61,42.55h0a1.72,1.72,0,0,1,1.71,1.71h0A1.71,1.71,0,0,1,9.61,46h0a1.71,1.71,0,0,1-1.71-1.7h0A1.72,1.72,0,0,1,9.61,42.55Z"/><path class="cls-1" d="M50.55,19.81h0a1.71,1.71,0,0,1,1.71,1.7h0a1.72,1.72,0,0,1-1.71,1.71h0a1.72,1.72,0,0,1-1.71-1.71h0A1.71,1.71,0,0,1,50.55,19.81Z"/><path class="cls-1" d="M50.55,42.55h0a1.72,1.72,0,0,1,1.71,1.71h0A1.71,1.71,0,0,1,50.55,46h0a1.71,1.71,0,0,1-1.71-1.7h0A1.72,1.72,0,0,1,50.55,42.55Z"/><circle class="cls-1" cx="30.08" cy="32.88" r="2.84"/><path class="cls-1" d="M50.55,26.63a5.13,5.13,0,0,1-5.12-5.12v-1.7H14.73v1.7a5.13,5.13,0,0,1-5.12,5.12H7.9V39.14H9.61a5.13,5.13,0,0,1,5.12,5.12V46h30.7v-1.7a5.13,5.13,0,0,1,5.12-5.12h1.71V26.63ZM30.08,39.14a6.26,6.26,0,1,1,6.25-6.26A6.26,6.26,0,0,1,30.08,39.14Z"/><path class="cls-2" d="M55.55,51.57H4.45A3.26,3.26,0,0,1,1.2,48.32V27.19a1.25,1.25,0,0,1,2.5,0V48.32a.76.76,0,0,0,.75.75h51.1a.76.76,0,0,0,.75-.75V16.86a.76.76,0,0,0-.75-.75h-51a1.25,1.25,0,1,1,0-2.5h51a3.26,3.26,0,0,1,3.25,3.25V48.32A3.26,3.26,0,0,1,55.55,51.57Z"/><path class="cls-2" d="M5.87,21.5a1.24,1.24,0,0,1-1-.58L1.4,15.53a1.24,1.24,0,0,1,0-1.36L4.83,9a1.25,1.25,0,1,1,2.08,1.37l-3,4.51,3,4.7a1.25,1.25,0,0,1-.39,1.72A1.27,1.27,0,0,1,5.87,21.5Z"/></svg>