<svg id="Layer_1" data-name="Layer 1" xmlns="http://www.w3.org/2000/svg" viewBox="0 0 60 60"><defs><style>.cls-1{fill:#ff9802;}.cls-2{fill:#e65100;}</style></defs><path class="cls-1" d="M36.88,40a1,1,0,0,0,1.34,1.1l3.83-1.64a6.28,6.28,0,0,0,2-1.34L38.89,33.8a9.5,9.5,0,0,0-1,2.13Z"/><path class="cls-1" d="M56,20.72,54.1,19.08a2.13,2.13,0,0,0-3,.24L40.84,31.37l5.23,4.44,10.16-12A2.21,2.21,0,0,0,56,20.72Z"/><path class="cls-1" d="M29.83,8.55A10.16,10.16,0,1,0,40,18.7,10.17,10.17,0,0,0,29.83,8.55Zm4.8,9.06-5.05,5.05a1.66,1.66,0,0,1-1.15.48,1.69,1.69,0,0,1-1.16-.48l-2.49-2.5A1.63,1.63,0,0,1,24.29,19a1.66,1.66,0,0,1,1.64-1.64,1.69,1.69,0,0,1,1.16.48l1.4,1.4,3.89-3.89a1.65,1.65,0,0,1,2.8,1.15A3.78,3.78,0,0,1,34.63,17.61Z"/><path class="cls-2" d="M47.58,48.88H12.25A1.25,1.25,0,0,1,11,47.63V2.43a1.25,1.25,0,0,1,1.25-1.25H47.58a1.25,1.25,0,0,1,1.25,1.25V16.6a1.25,1.25,0,1,1-2.5,0V3.68H13.5v42.7H46.33V38.92a1.25,1.25,0,0,1,2.5,0v8.71A1.25,1.25,0,0,1,47.58,48.88Z"/><path class="cls-2" d="M38.19,58.82H3.25A1.25,1.25,0,0,1,2,57.57V12a1.25,1.25,0,0,1,1.25-1.25h9a1.25,1.25,0,0,1,0,2.5H4.5v43H36.94V48.49a1.25,1.25,0,0,1,2.5,0v9.08A1.25,1.25,0,0,1,38.19,58.82Z"/><path class="cls-2" d="M33.25,41.1H19.73a1.25,1.25,0,1,1,0-2.5H33.25a1.25,1.25,0,0,1,0,2.5Z"/></svg>