<svg id="Layer_1" data-name="Layer 1" xmlns="http://www.w3.org/2000/svg" viewBox="0 0 60 60"><defs><style>.cls-1{fill:#ff9802;}.cls-2{fill:#e65100;}</style></defs><path class="cls-1" d="M17.52,24.85h9.41a2.14,2.14,0,0,0,0-4.27H10.44c-5.25,0-7.82,9.22-8.43,12A2.12,2.12,0,0,0,3.6,35.17a1.35,1.35,0,0,0,.49.06,2.09,2.09,0,0,0,2.07-1.65A32.69,32.69,0,0,1,8.06,28v5.13L6.35,51.23A2.48,2.48,0,0,0,8.61,54h.24a2.52,2.52,0,0,0,2.5-2.26l1.47-15,1.47,15A2.52,2.52,0,0,0,16.79,54H17a2.49,2.49,0,0,0,2.26-2.75L17.52,33.1Z"/><circle class="cls-1" cx="12.76" cy="14.41" r="4.95"/><path class="cls-1" d="M40.85,11.84a9.28,9.28,0,0,0-6.78,3A9.06,9.06,0,0,0,40,29.92c.25,0,.55.06.8.06a9.09,9.09,0,0,0,6.41-2.62,1,1,0,0,0,0-1.47l-5.31-5.44V12.88A1.07,1.07,0,0,0,40.85,11.84Z"/><path class="cls-1" d="M44.08,11.11H44a.35.35,0,0,0-.36.37v6.9a.35.35,0,0,0,.36.36h8.12c.19,0,.37-.18.31-.36A8.33,8.33,0,0,0,44.08,11.11Z"/><path class="cls-1" d="M45.18,20.45a.33.33,0,0,0-.24.55l4.58,4.58a.36.36,0,0,0,.49,0l.06-.06a8.27,8.27,0,0,0,2.38-4.7.35.35,0,0,0-.31-.37Z"/><path class="cls-2" d="M56,36.25H28A3.24,3.24,0,0,1,24.71,33V29a1.25,1.25,0,0,1,2.5,0v4a.74.74,0,0,0,.75.75H56a.75.75,0,0,0,.75-.75V8A.76.76,0,0,0,56,7.21H28a.75.75,0,0,0-.75.75v8.62a1.25,1.25,0,0,1-2.5,0V8A3.25,3.25,0,0,1,28,4.71H56A3.26,3.26,0,0,1,59.29,8V33A3.25,3.25,0,0,1,56,36.25Z"/><path class="cls-2" d="M54.1,55.29a1.24,1.24,0,0,1-1.18-.84l-6.58-19a1.25,1.25,0,1,1,2.36-.81l6.58,19a1.25,1.25,0,0,1-.77,1.59A1.22,1.22,0,0,1,54.1,55.29Z"/><path class="cls-2" d="M30.38,55.29a1.22,1.22,0,0,1-.41-.07,1.25,1.25,0,0,1-.77-1.59l6.58-19a1.25,1.25,0,1,1,2.36.81l-6.58,19A1.24,1.24,0,0,1,30.38,55.29Z"/></svg>