<svg id="Layer_1" data-name="Layer 1" xmlns="http://www.w3.org/2000/svg" viewBox="0 0 60 60"><defs><style>.cls-1{fill:#ff9802;}.cls-2{fill:none;stroke:#e65100;stroke-linecap:round;stroke-linejoin:round;stroke-width:2.5px;}</style></defs><path class="cls-1" d="M30,13.92,17.16,17.13V34C17.16,40.53,30,45.85,30,45.85h0S42.84,40.53,42.84,34V17.13Zm1.36,16.2V33.6a1.4,1.4,0,0,1-2.8,0V30.12a2.76,2.76,0,1,1,2.8,0Z"/><path class="cls-2" d="M5.38,44.56A28.59,28.59,0,0,1,10.09,9.48"/><path class="cls-2" d="M44.91,54.41a28.6,28.6,0,0,1-35-4"/><path class="cls-2" d="M55,16.12a28.6,28.6,0,0,1-4.79,34.1"/><path class="cls-2" d="M16,5.07A28.6,28.6,0,0,1,50.22,9.78"/><circle class="cls-1" cx="10.09" cy="50.17" r="4.09"/><circle class="cls-1" cx="10.09" cy="9.7" r="4.09"/><circle class="cls-1" cx="50.43" cy="9.7" r="4.09"/><circle class="cls-1" cx="50.43" cy="50.17" r="4.09"/></svg>