<svg xmlns="http://www.w3.org/2000/svg" width="40" height="46" viewBox="0 0 40 46">
    <g fill="none" fill-rule="evenodd">
        <g fill-rule="nonzero">
            <g>
                <path fill="#FF9802" d="M39.126 12.481l-.002-.036c-.02-.442-.033-.91-.041-1.43-.038-2.536-2.054-4.634-4.59-4.775-5.29-.295-9.38-2.02-12.877-5.427l-.03-.029c-1.14-1.045-2.86-1.045-4 0l-.03.029C14.06 4.22 9.969 5.945 4.68 6.24 2.144 6.381.127 8.48.09 11.016c-.008.517-.022.984-.042 1.43l-.002.082c-.103 5.393-.23 12.105 2.015 18.198 1.234 3.35 3.104 6.262 5.557 8.656 2.794 2.726 6.453 4.89 10.875 6.432.144.05.294.091.446.122.215.043.431.064.647.064.216 0 .433-.021.647-.064.153-.03.303-.072.448-.122 4.417-1.545 8.072-3.71 10.864-6.436 2.451-2.395 4.321-5.308 5.557-8.659 2.254-6.11 2.126-12.835 2.024-18.238zm-4.557 17.304c-2.368 6.421-7.202 10.831-14.779 13.48-.027.01-.056.018-.085.024-.079.015-.158.015-.238 0-.03-.006-.058-.014-.085-.023C11.798 40.62 6.96 36.214 4.594 29.792c-2.07-5.615-1.953-11.777-1.85-17.212l.001-.03c.022-.467.036-.957.043-1.494.017-1.126.914-2.058 2.042-2.121 2.993-.167 5.623-.745 8.039-1.768 2.412-1.021 4.555-2.461 6.55-4.401.102-.086.233-.086.334 0 1.995 1.94 4.138 3.38 6.55 4.4 2.417 1.024 5.046 1.602 8.04 1.769 1.128.063 2.025.995 2.041 2.121.008.54.022 1.03.043 1.494.104 5.442.218 11.608-1.858 17.235z" transform="translate(-644 -487) translate(644 487)"/>
                <path fill="#E65100" d="M19.586 11.537C13.264 11.537 8.122 16.68 8.122 23c0 6.321 5.142 11.464 11.464 11.464 6.32 0 11.463-5.143 11.463-11.464 0-6.321-5.142-11.464-11.463-11.464zm0 20.228c-4.833 0-8.765-3.931-8.765-8.764 0-4.833 3.932-8.765 8.765-8.765 4.832 0 8.764 3.932 8.764 8.765s-3.932 8.764-8.764 8.764z" transform="translate(-644 -487) translate(644 487)"/>
                <path fill="#E65100" d="M22.88 19.442l-5.324 5.324-1.446-1.445c-.527-.527-1.381-.527-1.908 0-.527.527-.527 1.382 0 1.909l2.4 2.4c.263.263.608.395.954.395.345 0 .69-.132.954-.396l6.28-6.279c.526-.527.526-1.381 0-1.908-.528-.528-1.383-.528-1.91 0z" transform="translate(-644 -487) translate(644 487)"/>
            </g>
        </g>
    </g>
</svg>
