<svg id="Layer_1" data-name="Layer 1" xmlns="http://www.w3.org/2000/svg" viewBox="0 0 60 60"><defs><style>.cls-1{fill:#e65100;}.cls-2{fill:#ff9802;}</style></defs><path class="cls-1" d="M55.74,28.42H4.26A3.26,3.26,0,0,1,1,25.17V5.08A3.26,3.26,0,0,1,4.26,1.83H55.74A3.26,3.26,0,0,1,59,5.08V25.17A3.26,3.26,0,0,1,55.74,28.42ZM4.26,4.33a.76.76,0,0,0-.75.75V25.17a.76.76,0,0,0,.75.75H55.74a.76.76,0,0,0,.75-.75V5.08a.76.76,0,0,0-.75-.75Z"/><path class="cls-1" d="M55.74,58.17H4.26A3.26,3.26,0,0,1,1,54.92V34.83a3.26,3.26,0,0,1,3.25-3.25H55.74A3.26,3.26,0,0,1,59,34.83V54.92A3.26,3.26,0,0,1,55.74,58.17ZM4.26,34.08a.76.76,0,0,0-.75.75V54.92a.76.76,0,0,0,.75.75H55.74a.76.76,0,0,0,.75-.75V34.83a.76.76,0,0,0-.75-.75Z"/><circle class="cls-2" cx="45.62" cy="15.05" r="6.75"/><circle class="cls-2" cx="13.37" cy="44.3" r="6.75"/></svg>