<svg id="Layer_1" data-name="Layer 1" xmlns="http://www.w3.org/2000/svg" viewBox="0 0 60 60"><defs><style>.cls-1{fill:#ff9802;}.cls-2{fill:#e65100;}</style></defs><path class="cls-1" d="M54.8,50.68a3.81,3.81,0,0,0-3.66,2.84h-3a.94.94,0,0,1-1-.94V45.94h2a3.79,3.79,0,1,0,0-1.9h-2V29.82h2.84a8.53,8.53,0,1,0,0-17.06h-2a8.51,8.51,0,0,0-13.44-6,14.21,14.21,0,0,0-25.08,6,8.52,8.52,0,0,0,.66,17h2.84V42.15h-2a3.8,3.8,0,1,0,0,1.89h2v8.54a.94.94,0,0,1-.95.94h-3a3.79,3.79,0,1,0,0,1.9h3A2.86,2.86,0,0,0,15,52.58V44h7.58a2.85,2.85,0,0,0,2.85-2.84V29.82h3.79v21a3.79,3.79,0,1,0,1.89,0v-21h3.8V43.1a2.84,2.84,0,0,0,2.84,2.84h7.58v6.64a2.86,2.86,0,0,0,2.85,2.84h3a3.79,3.79,0,1,0,3.66-4.74ZM23.52,41.2a1,1,0,0,1-.95.95H15V29.82h8.53ZM45.32,44H37.74a1,1,0,0,1-1-.94V29.82h8.53Z"/><path class="cls-2" d="M13.07,55.63H8.48v-2.5h4.34V29.77h2.5V53.38A2.25,2.25,0,0,1,13.07,55.63Z"/><circle class="cls-1" cx="5.38" cy="54.46" r="3.98"/><rect class="cls-2" x="28.95" y="29.77" width="2.5" height="21.96"/><path class="cls-2" d="M50.46,46.08H36.86a2.25,2.25,0,0,1-2.25-2.25V29.77h2.5V43.58H50.46Z"/><path class="cls-2" d="M23.56,44.3H10V41.8H23.31v-12h2.5V42.05A2.25,2.25,0,0,1,23.56,44.3Z"/><path class="cls-2" d="M53.39,55.63H47.21A2.25,2.25,0,0,1,45,53.38V29.77h2.5V53.13h5.93Z"/><circle class="cls-1" cx="7.18" cy="43.05" r="3.98"/><circle class="cls-1" cx="30.2" cy="54.46" r="3.98"/><circle class="cls-1" cx="52.89" cy="44.83" r="3.98"/><circle class="cls-1" cx="54.62" cy="54.64" r="3.98"/></svg>