<svg id="Layer_1" data-name="Layer 1" xmlns="http://www.w3.org/2000/svg" viewBox="0 0 60 60"><defs><style>.cls-1{fill:#e65100;}.cls-2{fill:#ff9802;}</style></defs><path class="cls-1" d="M57.46,11.5H2.54a1.25,1.25,0,0,1-1.25-1.25,9.51,9.51,0,0,1,9.5-9.5H49.23a9.5,9.5,0,0,1,9.48,9.5A1.25,1.25,0,0,1,57.46,11.5ZM3.9,9H56.1a7,7,0,0,0-6.87-5.75H10.79A7,7,0,0,0,3.9,9Z"/><path class="cls-1" d="M22,39H10.79a9.51,9.51,0,0,1-9.5-9.49V15.72a1.25,1.25,0,0,1,1.25-1.25H57.46a1.25,1.25,0,0,1,1.25,1.25V29.46A9.38,9.38,0,0,1,54.8,37.1a1.25,1.25,0,1,1-1.47-2,6.89,6.89,0,0,0,2.88-5.62V17H3.79V29.46a7,7,0,0,0,7,7H22A1.25,1.25,0,0,1,22,39Zm-.22-8.24H13.52a1.25,1.25,0,0,1-1.25-1.25V24a1.25,1.25,0,0,1,1.25-1.25h8.25A1.25,1.25,0,0,1,23,24v5.49A1.25,1.25,0,0,1,21.77,30.71Zm-7-2.5h5.75v-3H14.77Z"/><path class="cls-2" d="M50.28,40.59A11.6,11.6,0,0,0,38.46,29,11.85,11.85,0,0,0,27.09,41V43.5h-1.9a1,1,0,0,0-1,1V57a1,1,0,0,0,1,1h27a1,1,0,0,0,1-1V44.5a1,1,0,0,0-1-1h-1.9V40.59Zm-5.8,2.91H32.89V40.59a5.8,5.8,0,0,1,11.59,0Z"/></svg>