<svg id="Layer_1" data-name="Layer 1" xmlns="http://www.w3.org/2000/svg" viewBox="0 0 60 60"><defs><style>.cls-1{fill:#e65100;}.cls-2{fill:#ff9802;}</style></defs><path class="cls-1" d="M47.28,44.16H42.72a1.25,1.25,0,0,1,0-2.5h4.56a.75.75,0,0,0,.75-.75V21.62a.76.76,0,0,0-.75-.75H12.72a.76.76,0,0,0-.75.75V40.91a.75.75,0,0,0,.75.75h4.43a1.25,1.25,0,0,1,0,2.5H12.72a3.25,3.25,0,0,1-3.25-3.25V21.62a3.26,3.26,0,0,1,3.25-3.25H47.28a3.26,3.26,0,0,1,3.25,3.25V40.91A3.25,3.25,0,0,1,47.28,44.16Z"/><polygon class="cls-2" points="26.4 14.51 33.04 14.51 33.04 8.55 35.97 8.55 29.72 1.14 23.38 8.54 26.35 8.54 26.4 14.51"/><path class="cls-2" d="M41.58,29.11H18.42a1,1,0,0,0-1,1v1a1,1,0,0,0,1,1H20.2V56.86a2,2,0,0,0,2,2H32.32V32.07h4V58.86h1.31a2,2,0,0,0,2-2V32.07h1.94a1,1,0,0,0,1-1v-1A1,1,0,0,0,41.58,29.11ZM24,33h4v7H24Zm1.95,23a2.62,2.62,0,0,1-2.62-2.62,2.67,2.67,0,0,1,.47-1.5,2,2,0,1,1,3.57-1.35,2.35,2.35,0,0,1-.09.6A2.62,2.62,0,0,1,25.93,56Z"/></svg>