<svg id="Layer_1" data-name="Layer 1" xmlns="http://www.w3.org/2000/svg" viewBox="0 0 60 60"><defs><style>.cls-1{fill:#e65100;stroke:#e65100;stroke-miterlimit:10;stroke-width:0.5px;}.cls-2{fill:#ff9802;}</style></defs><path class="cls-1" d="M57.1,42.88H53.8a.1.1,0,0,1-.09-.09s0-.08,0-.11l2.34-2.34a1.53,1.53,0,0,0,0-2.15l-2.26-2.26a1.51,1.51,0,0,0-2.14,0l-2.34,2.35a.25.25,0,0,1-.12,0,.1.1,0,0,1,0-.08v-3.3a1.52,1.52,0,0,0-1.53-1.53H44.45a1.52,1.52,0,0,0-1.52,1.53v3.3a.09.09,0,0,1-.09.08s-.08,0-.11,0L40.42,36a1.53,1.53,0,0,0-2.15,0L36,38.22a1.53,1.53,0,0,0,0,2.15l2.35,2.34a.22.22,0,0,1,0,.11s-.05.06-.08.06H35a1.51,1.51,0,0,0-1.52,1.52v3.19A1.51,1.51,0,0,0,35,49.11h3.3a.1.1,0,0,1,.09.09s0,.08,0,.11L36,51.65a1.51,1.51,0,0,0,0,2.15l2.25,2.26a1.53,1.53,0,0,0,2.15,0l2.34-2.34a.17.17,0,0,1,.11,0s.06.05.06.08v3.28a1.52,1.52,0,0,0,1.52,1.52h3.19a1.52,1.52,0,0,0,1.53-1.52V53.74s0-.08.08-.08.09,0,.12,0L51.68,56a1.51,1.51,0,0,0,2.14,0l2.26-2.26a1.51,1.51,0,0,0,0-2.14l-2.34-2.35c-.06-.05-.06-.08,0-.14a.14.14,0,0,1,.09,0h3.3a1.52,1.52,0,0,0,1.52-1.53V44.37A1.54,1.54,0,0,0,57.1,42.88Zm.14,4.68h-.06a.12.12,0,0,1-.11.12H53.8a1.54,1.54,0,0,0-1.42.93,1.48,1.48,0,0,0,.34,1.63l2.35,2.35a.17.17,0,0,1,0,.14L52.81,55a.17.17,0,0,1-.14,0l-2.35-2.35a1.53,1.53,0,0,0-2.59,1.08v3.33a.13.13,0,0,1-.12.11H44.45a.13.13,0,0,1-.11-.11V53.74a1.55,1.55,0,0,0-.93-1.41,1.58,1.58,0,0,0-.59-.11,1.45,1.45,0,0,0-1.08.45L39.4,55a.12.12,0,0,1-.14,0L37,52.76a.14.14,0,0,1,0-.15l2.34-2.34a1.53,1.53,0,0,0-1.07-2.59H35a.12.12,0,0,1-.11-.12V44.37a.12.12,0,0,1,.11-.11h3.3a1.54,1.54,0,0,0,1.41-.93,1.46,1.46,0,0,0-.34-1.64L37,39.35a.12.12,0,0,1,0-.14L39.29,37a.12.12,0,0,1,.14,0l2.34,2.34a1.53,1.53,0,0,0,2.6-1.07v-3.3a.12.12,0,0,1,.11-.12h3.19a.12.12,0,0,1,.11.12v3.3a1.54,1.54,0,0,0,.93,1.41,1.47,1.47,0,0,0,1.64-.34L52.69,37a.14.14,0,0,1,.15,0l2.25,2.26a.12.12,0,0,1,0,.14l-2.34,2.34a1.53,1.53,0,0,0,1.07,2.6h3.31a.12.12,0,0,1,.11.11Z"/><path class="cls-1" d="M46,42a3.81,3.81,0,1,0,3.81,3.81A3.82,3.82,0,0,0,46,42Zm-2.4,3.81A2.4,2.4,0,1,1,46,48.15,2.4,2.4,0,0,1,43.63,45.76Z"/><circle class="cls-2" cx="24.07" cy="13.61" r="12.61"/><path class="cls-2" d="M39.16,32.11a11.83,11.83,0,0,0-4.38-.86H13.35a12,12,0,0,0-12,12v8.82a1.89,1.89,0,0,0,1.89,1.89h29S26.24,39.77,39.16,32.11Z"/></svg>