<svg id="Layer_1" data-name="Layer 1" xmlns="http://www.w3.org/2000/svg" viewBox="0 0 60 60"><defs><style>.cls-1{fill:#ff9802;fill-rule:evenodd;}.cls-2{fill:#e65100;}</style></defs><path class="cls-1" d="M44.68,1H15.32a3,3,0,0,0-3,3V56.05a3,3,0,0,0,3,3H44.68a3,3,0,0,0,3-3V4A3,3,0,0,0,44.68,1ZM30,57.2a1.7,1.7,0,1,1,1.7-1.7A1.7,1.7,0,0,1,30,57.2Zm14.28-8.83a3.23,3.23,0,0,1-3.09,3.36H18.81a3.22,3.22,0,0,1-3.09-3.17V4.87A1.78,1.78,0,0,1,17.42,3h1.84a.9.9,0,0,1,.81.58,4.87,4.87,0,0,0,4.41,3.1h11a4.86,4.86,0,0,0,4.41-3.1A.9.9,0,0,1,40.74,3h1.84a1.78,1.78,0,0,1,1.7,1.86Z"/><path class="cls-2" d="M27.44,23.35H20.08a1.25,1.25,0,0,1-1.25-1.25V14.75a1.25,1.25,0,0,1,1.25-1.25h7.36a1.25,1.25,0,0,1,1.25,1.25V22.1A1.25,1.25,0,0,1,27.44,23.35Zm-6.11-2.5h4.86V16H21.33Z"/><path class="cls-2" d="M39.92,23.35H32.56a1.25,1.25,0,0,1-1.25-1.25V14.75a1.25,1.25,0,0,1,1.25-1.25h7.36a1.25,1.25,0,0,1,1.25,1.25V22.1A1.25,1.25,0,0,1,39.92,23.35Zm-6.11-2.5h4.86V16H33.81Z"/><path class="cls-2" d="M27.44,36.88H20.08a1.25,1.25,0,0,1-1.25-1.25V28.27A1.25,1.25,0,0,1,20.08,27h7.36a1.25,1.25,0,0,1,1.25,1.25v7.36A1.25,1.25,0,0,1,27.44,36.88Zm-6.11-2.5h4.86V29.52H21.33Z"/><path class="cls-2" d="M39.92,36.88H32.56a1.25,1.25,0,0,1-1.25-1.25V28.27A1.25,1.25,0,0,1,32.56,27h7.36a1.25,1.25,0,0,1,1.25,1.25v7.36A1.25,1.25,0,0,1,39.92,36.88Zm-6.11-2.5h4.86V29.52H33.81Z"/></svg>